<svg width="60" height="52" viewBox="0 0 60 52" fill="none" xmlns="http://www.w3.org/2000/svg">
<path fill-rule="evenodd" clip-rule="evenodd" d="M52.529 18.6743C46.6 16.3373 40.6121 16.5863 39.0941 19.3223C37.5601 22.0803 39.794 28.6103 44.008 34.0323C48.221 39.4523 54.1781 39.2753 57.4641 33.3553C60.698 27.4553 58.441 21.0033 52.529 18.6743Z" fill="#FF9700"/>
<path fill-rule="evenodd" clip-rule="evenodd" d="M22.325 20.5633C27.585 24.1553 33.476 25.2423 35.564 22.9123C37.67 20.5633 36.943 13.7023 34.037 7.48328C31.133 1.26728 25.29 0.119278 20.772 5.15728C16.31 10.1923 17.08 16.9793 22.325 20.5633Z" fill="#006ECD"/>
<mask id="mask0_17_159" style="mask-type:alpha" maskUnits="userSpaceOnUse" x="22" y="28" width="20" height="23">
<path d="M22.5059 28.0513H41.1409V50.9283H22.5059V28.0513Z" fill="white"/>
</mask>
<g mask="url(#mask0_17_159)">
<path fill-rule="evenodd" clip-rule="evenodd" d="M41.1937 39.4733C40.3497 33.1563 37.2197 28.0473 34.0897 28.0513C30.9357 28.0533 26.3157 33.1813 23.6287 39.5013C20.9447 45.8183 23.9967 50.9363 30.7657 50.9293C37.4957 50.8833 42.0347 45.7733 41.1927 39.4743" fill="#EF151E"/>
</g>
<path fill-rule="evenodd" clip-rule="evenodd" d="M17.03 23.0533C15.956 23.0533 15.235 23.7153 15.235 24.6993V25.6903H17.782C17.782 25.6903 17.868 34.0983 17.772 34.9793C17.675 35.8593 17.451 37.2933 15.876 38.0453C14.516 38.6943 14.49 39.3083 14.402 39.8533C14.289 40.5613 14.422 40.6523 14.937 40.5253C16.962 40.0293 19.117 39.2153 20.207 37.2153C20.8 36.1283 21.036 34.9513 21.036 33.1643V25.6893C22.115 25.6773 22.894 24.9893 22.894 24.0443V23.0543H17.029L17.03 23.0533ZM14.196 34.3893C14.196 34.3893 12.152 37.3223 8.183 37.3223C4.087 37.3223 1 34.1863 1 30.0273C1 25.8123 4.087 22.6353 8.183 22.6353C12.081 22.6353 14.144 25.5653 14.144 25.5653C14.144 25.5653 13.053 26.7343 12.005 26.7343C11.494 26.7343 11.112 26.4983 10.67 26.2253C10.078 25.8603 9.407 25.4463 8.183 25.4463C5.853 25.4463 3.96 27.5013 3.96 30.0273C3.96 32.5013 5.854 34.5133 8.183 34.5133C9.565 34.5133 10.213 34.1173 10.787 33.7673C11.194 33.5173 11.58 33.2833 12.137 33.2833C13.316 33.2833 14.197 34.3893 14.197 34.3893" fill="white"/>
</svg>
