<svg width="368" height="202" viewBox="0 0 368 202" fill="none" xmlns="http://www.w3.org/2000/svg">
<path d="M145.55 186.096L104.29 108.352L75.3417 112.421L72.4452 196.37L33.3593 201.863L36.2558 117.914L0.838623 122.891L1.97431 90.0812L37.3964 85.103L67.3963 42.1492L77.8238 40.6837L76.4823 79.6098L127.443 72.4478L160.958 135.58L186.903 64.0912L229.736 58.0714L185.294 180.51L145.55 186.096ZM322.283 161.257L279.182 80.0617L276.154 167.74L237.068 173.234L242.452 17.5468L282.327 11.9426L325.205 92.7197L328.216 5.49337L367.302 0.000206292L361.918 155.687L322.283 161.257Z" fill="#FA0028"/>
</svg>
