<svg width="705" height="320" viewBox="0 0 705 320" fill="none" xmlns="http://www.w3.org/2000/svg">
<g clip-path="url(#clip0_107_1875)">
<path d="M96.002 220.523H266.049L316.068 77.71C312.524 74.6568 308.88 71.6035 305.336 68.5503C252.264 71.6035 199.093 74.6568 146.022 77.71C129.283 125.282 112.642 172.952 96.002 220.523Z" fill="#A03348"/>
<path d="M85.1709 211.462H255.316L305.336 68.5503H135.289L85.1709 211.462Z" fill="#D64759"/>
<path d="M0 244.063H132.532C136.668 203.189 140.902 162.216 145.037 121.342C96.6913 121.145 48.3457 120.849 0 120.652L0 244.063Z" fill="#A03348"/>
<path d="M18.2158 244.063H150.748C154.883 203.189 159.117 162.216 163.253 121.342C114.907 121.145 66.5615 120.849 18.2158 120.652V244.063V244.063Z" fill="#D64759"/>
<path d="M117.074 207.325C117.467 207.325 117.763 207.03 117.763 206.636V120.554C117.763 120.16 117.467 119.865 117.074 119.865C116.68 119.865 116.384 120.16 116.384 120.554V206.636C116.384 207.03 116.68 207.325 117.074 207.325Z" fill="#A03348"/>
<path d="M153.8 312.219C157.345 312.219 160.89 312.219 164.336 312.219C165.025 293.309 165.715 274.3 166.404 255.389H150.748C151.733 274.3 152.816 293.21 153.8 312.219Z" fill="#210B04"/>
<path d="M20.575 261.115L280.814 261.115L280.814 243.977L20.575 243.977L20.575 261.115Z" fill="#163144"/>
<path d="M250.393 312.219C253.938 312.219 257.483 312.219 260.929 312.219C261.618 293.309 262.307 274.3 262.997 255.389H247.341C248.325 274.3 249.31 293.21 250.393 312.219Z" fill="#163144"/>
<path d="M129.283 312.219C132.828 312.219 136.372 312.219 139.818 312.219C140.508 293.309 141.197 274.3 141.886 255.389H126.23C127.215 274.3 128.2 293.21 129.283 312.219Z" fill="#163144"/>
<path d="M31.5084 312.219C35.0531 312.219 38.5978 312.219 42.044 312.219C42.7333 293.309 43.4225 274.3 44.1118 255.389H28.4561C29.5392 274.3 30.5238 293.21 31.5084 312.219Z" fill="#163144"/>
<path d="M18.2334 244.071L137.375 244.071L137.375 207.629L18.2334 207.629L18.2334 244.071Z" fill="#A03348"/>
<path d="M87.9284 202.204C87.3376 209 77.6882 216.387 71.7804 229.387C70.5003 232.244 69.7126 234.706 69.3188 236.085C66.3649 235.1 63.4109 234.115 60.457 233.229C61.2447 224.857 62.5248 215.796 64.3956 206.143C66.4633 195.211 69.0234 185.362 71.7804 176.497C73.0604 176.005 74.8327 175.512 76.9005 175.414C77.2943 175.315 77.5897 175.315 77.9836 175.315C83.4975 175.118 86.9438 180.929 89.3069 179.748C89.5038 179.649 89.7992 179.452 90.0946 179.058C90.1931 181.225 90.0946 182.899 89.9961 184.081C89.7992 186.347 89.6023 187.233 88.8146 191.961C87.9284 196.885 88.1253 199.643 87.9284 202.204Z" fill="#F3A984"/>
<path d="M42.7334 250.76C42.7334 252.041 43.3242 253.223 44.0134 254.011C44.2104 254.208 44.3088 254.503 44.5057 254.602L75.4233 249.972C75.5218 249.775 75.6203 249.578 75.7187 249.381C76.3095 248.298 76.7034 246.821 76.6049 245.048C76.408 242.783 75.3249 241.207 74.5372 240.222C73.2571 238.35 71.8787 235.396 71.2879 230.668C71.1894 230.077 71.1894 229.585 71.0909 228.994C67.9401 229.191 64.7893 229.191 61.54 229.289C61.2446 229.88 60.9492 230.373 60.6538 230.963C58.9799 234.115 57.1091 236.578 55.2383 238.547C54.6475 239.237 53.9583 239.828 53.3675 240.419C53.0721 240.714 52.7767 241.01 52.5798 241.108C51.989 241.699 51.3982 242.093 50.9059 242.487C50.709 242.586 50.6105 242.684 50.4136 242.881C46.9673 245.54 42.8319 247.51 42.7334 250.76Z" fill="#F9D4D3"/>
<path d="M81.0359 194.127C80.0513 193.93 79.1651 193.635 78.3774 193.438C78.082 192.059 77.7866 190.68 77.4912 189.301C76.802 185.657 76.7035 185.46 76.7035 185.165C76.3096 183.293 75.2265 180.536 72.3711 177.187C74.3404 176.103 76.5066 175.119 78.5743 174.134C99.1532 164.777 119.634 161.822 137.456 161.724C140.606 169.997 143.757 178.172 146.908 186.445C141.788 189.203 135.585 191.961 128.495 193.93C109.098 199.348 91.8669 196.885 81.0359 194.127Z" fill="#F3A984"/>
<path d="M121.8 176.301C112.446 177.088 105.356 182.998 105.947 189.4C106.538 195.802 114.513 200.234 123.867 199.446C133.221 198.658 140.311 192.749 139.72 186.347C139.129 179.945 131.154 175.414 121.8 176.301Z" fill="#F3A984"/>
<path d="M89.9959 202.598C102.599 204.371 119.043 204.666 136.766 199.348C139.819 198.461 142.674 197.378 145.333 196.294C147.105 193.438 148.089 190.68 148.582 188.513C152.028 173.641 140.212 160.739 138.44 158.867C126.231 159.951 111.658 162.216 95.5099 167.141C85.762 170.095 77.0972 173.543 69.5155 176.99C68.3339 182.21 67.1524 187.627 66.0693 193.044C63.4107 206.34 61.343 219.243 59.7676 231.554C65.6754 232.933 71.5832 234.312 77.491 235.593C81.6265 224.758 85.762 213.727 89.9959 202.598Z" fill="#FFB000"/>
<path d="M43.8165 256.374L77.4911 251.647C77.5896 251.647 77.5896 251.548 77.5896 251.45L77.2942 249.381C77.2942 249.283 77.1957 249.283 77.0973 249.283L43.4227 254.011C43.3242 254.011 43.3242 254.109 43.3242 254.208L43.6196 256.276C43.6196 256.276 43.7181 256.374 43.8165 256.374Z" fill="#5D7AA6"/>
<path d="M53.4658 240.517L57.0105 241.798C57.6013 241.995 58.2905 241.601 58.5859 241.01C58.6844 240.813 58.6844 240.813 58.6844 240.616C58.6844 240.123 58.2905 239.631 57.7982 239.434L55.3366 238.547C54.7458 239.335 54.0566 240.025 53.4658 240.517Z" fill="#5D7AA6"/>
<path d="M50.5122 242.979L55.2385 244.654C55.8292 244.851 56.5185 244.555 56.8139 243.964C56.9123 243.767 56.9123 243.767 56.9123 243.57C56.9123 243.078 56.5185 242.585 56.0262 242.388L52.7769 241.207C52.1861 241.797 51.5953 242.191 51.103 242.585C50.8076 242.684 50.7091 242.881 50.5122 242.979Z" fill="#5D7AA6"/>
<path d="M140.212 88.5443C140.311 93.2719 140.114 97.7041 139.818 101.742C147.302 101.545 154.883 101.348 162.465 101.151C162.071 98.886 161.776 96.7191 161.382 94.4538C160.693 90.5142 160.102 86.673 159.413 82.7333C159.314 82.4378 159.314 82.1423 159.216 81.8469C158.428 77.5132 157.739 73.1796 156.951 68.8459L149.271 69.5354L144.446 69.9294L142.181 70.1263L138.932 70.4218C139.523 74.657 139.917 79.1876 140.114 84.0137C140.114 85.5896 140.212 87.0669 140.212 88.5443Z" fill="#F3A984"/>
<path d="M121.701 173.247C127.707 174.232 134.796 174.922 142.673 174.823C154.194 174.823 164.139 173.247 172.016 171.376C173.788 155.026 175.56 138.775 177.333 122.425C181.173 118.88 185.013 115.235 188.853 111.69C187.179 109.129 176.742 93.9612 156.261 90.4155C135.289 86.8698 122.095 107.75 124.261 111.591C123.375 132.176 122.488 152.662 121.701 173.247Z" fill="#F3A984"/>
<path d="M138.932 70.4217C139.523 74.6568 139.917 79.1874 140.114 84.0135C140.114 85.5894 140.212 87.0668 140.212 88.4457C140.704 88.5442 141.197 88.6426 141.689 88.6426C146.12 88.6426 149.763 84.309 149.763 78.9904C149.763 74.8538 147.597 71.3081 144.545 69.9292L142.28 70.1262L138.932 70.4217Z" fill="#210B04"/>
<path d="M168.865 51.2159C168.668 54.0721 168.471 57.0269 168.373 59.8832C167.486 63.2319 165.517 68.8459 160.791 73.7705C159.905 74.6569 146.317 88.5443 134.009 82.4378C126.919 78.8921 122.784 70.0278 123.572 60.2771C123.67 59.0952 123.67 59.4892 123.965 56.1405C124.753 44.7154 123.67 42.5486 124.655 39.0029C126.722 31.025 136.273 27.1839 137.455 26.6914C147.203 22.8502 159.117 26.2974 164.729 33.6843C170.046 40.7757 169.16 49.049 168.865 51.2159Z" fill="#F3A984"/>
<path d="M137.553 64.9061C136.766 64.5122 135.978 64.4137 135.19 64.3152C134.403 64.3152 133.615 64.4137 132.827 64.9061C133.615 65.3001 134.403 65.3986 135.19 65.4971C136.076 65.4971 136.864 65.3986 137.553 64.9061Z" fill="#210B04"/>
<path d="M131.252 56.239C131.252 57.7164 130.267 58.7998 128.987 58.8983C127.707 58.8983 126.624 57.7164 126.624 56.3375C126.624 54.8601 127.609 53.7767 128.889 53.6782C130.07 53.6782 131.153 54.8601 131.252 56.239Z" fill="#210B04"/>
<path d="M133.91 58.7012C134.304 58.6027 134.403 58.3072 134.304 58.1103C133.418 55.648 131.35 53.7766 128.987 53.5796C127.805 53.4811 126.722 53.7766 125.935 54.1706L125.049 52.3977C124.95 52.2007 124.655 52.1023 124.458 52.2007C124.261 52.2992 124.162 52.5947 124.261 52.7917L125.344 54.9585C125.442 55.057 125.541 55.1555 125.639 55.1555C125.738 55.1555 125.935 55.1555 126.033 55.1555C126.722 54.7615 127.707 54.3676 128.987 54.4661C130.956 54.663 132.729 56.2389 133.516 58.4057C133.516 58.6027 133.713 58.7012 133.91 58.7012Z" fill="#210B04"/>
<path d="M150.747 58.0118C150.747 59.4892 149.763 60.5726 148.483 60.6711C147.203 60.7696 146.12 59.4892 146.12 58.1103C146.12 56.633 147.104 55.5495 148.384 55.4511C149.566 55.3526 150.649 56.5345 150.747 58.0118Z" fill="#210B04"/>
<path d="M153.406 60.3755C153.8 60.277 153.899 59.9816 153.8 59.7846C152.914 57.3223 150.846 55.4509 148.483 55.2539C147.302 55.1555 146.218 55.4509 145.431 55.8449L144.545 54.072C144.446 53.8751 144.151 53.7766 143.954 53.8751C143.757 53.9736 143.658 54.269 143.757 54.466L144.84 56.6328C144.938 56.7313 145.037 56.8298 145.135 56.8298C145.234 56.8298 145.431 56.8298 145.529 56.8298C146.218 56.4359 147.203 56.0419 148.483 56.1404C150.452 56.3374 152.225 57.9132 153.012 60.08C153.012 60.277 153.209 60.3755 153.406 60.3755Z" fill="#210B04"/>
<path d="M138.538 73.1796C139.621 73.1796 140.606 73.0812 141.689 72.8842C141.984 72.7857 142.083 72.5887 142.083 72.2932C142.083 71.9977 141.787 71.8992 141.492 71.8992C140.212 72.1947 138.833 72.1947 137.455 72.1947C135.387 72.0962 133.418 71.5053 131.646 70.7174C131.449 70.6189 131.153 70.7173 131.055 70.9143C130.956 71.1113 131.055 71.4068 131.252 71.5053C133.221 72.3917 135.289 72.9827 137.455 73.0811C137.849 73.0811 138.243 73.1796 138.538 73.1796Z" fill="#210B04"/>
<path d="M137.652 75.5434C137.849 75.5434 138.046 75.3465 138.144 75.1495C138.144 74.854 138.046 74.657 137.75 74.657L134.698 74.1646C134.402 74.1646 134.206 74.263 134.206 74.5585C134.206 74.854 134.304 75.051 134.599 75.051L137.652 75.5434Z" fill="#210B04"/>
<path d="M123.966 50.4279C124.163 50.9204 125.344 50.4279 129.184 50.2309C133.517 49.9355 134.895 50.3294 135.092 49.837C135.289 49.049 132.433 46.6852 129.381 46.8822C126.23 46.9807 123.572 49.64 123.966 50.4279Z" fill="#210B04"/>
<path d="M144.249 49.5414C144.348 50.0339 145.529 49.9354 149.369 50.7233C153.603 51.6097 154.883 52.2992 155.179 51.9052C155.573 51.2158 153.505 48.1625 150.452 47.5716C147.302 46.8821 144.052 48.7535 144.249 49.5414Z" fill="#210B04"/>
<path d="M170.342 60.5726C169.554 64.4138 166.6 67.0731 163.745 66.4821C160.889 65.8912 159.215 62.247 160.102 58.4058C160.889 54.5646 163.843 51.9053 166.699 52.4963C169.554 53.0872 171.129 56.6329 170.342 60.5726Z" fill="#F3A984"/>
<path d="M164.533 66.9744C166.108 66.9744 167.782 66.088 168.963 64.5121C169.16 64.3152 169.062 64.0197 168.865 63.8227C168.668 63.6257 168.373 63.7242 168.176 63.9212C166.896 65.4971 165.222 66.285 163.745 65.891C163.056 65.694 162.366 65.3986 161.874 64.8076C161.677 64.6106 161.382 64.6106 161.185 64.8076C160.988 65.0046 160.988 65.3001 161.185 65.4971C161.874 66.1865 162.662 66.679 163.548 66.876C163.942 66.9744 164.237 66.9744 164.533 66.9744Z" fill="#210B04"/>
<path d="M169.259 63.9212C169.456 63.9212 169.554 63.8227 169.653 63.7242C170.145 62.9363 170.44 62.1484 170.736 61.2619C170.834 60.9665 170.637 60.7695 170.44 60.671C170.145 60.5725 169.948 60.7695 169.85 60.9665C169.653 61.7544 169.357 62.5423 168.865 63.2318C168.767 63.4287 168.767 63.7242 169.062 63.9212C169.062 63.9212 169.16 63.9212 169.259 63.9212Z" fill="#210B04"/>
<path d="M170.44 60.2771C170.637 60.2771 170.834 60.0801 170.933 59.8831C171.425 56.042 169.652 52.6932 166.797 52.1023C166.108 52.0038 165.419 52.0038 164.729 52.2008C164.434 52.2993 164.335 52.4963 164.434 52.7917C164.532 52.9887 164.729 53.1857 165.025 53.0872C165.517 52.9887 166.108 52.9887 166.6 53.0872C168.963 53.5797 170.44 56.5344 170.046 59.8831C169.948 59.9816 170.145 60.1786 170.44 60.2771Z" fill="#210B04"/>
<path d="M163.449 63.0348C163.646 63.0348 163.745 62.9364 163.843 62.8379L167.782 57.0268C167.88 56.8299 167.88 56.5344 167.683 56.3374C167.486 56.2389 167.191 56.2389 166.994 56.4359L163.055 62.2469C162.957 62.4439 162.957 62.7394 163.154 62.9364C163.252 63.0348 163.351 63.0348 163.449 63.0348Z" fill="#210B04"/>
<path d="M165.517 59.5876C165.911 59.4891 166.009 59.1936 165.911 58.9967L165.123 56.7313C165.025 56.5344 164.729 56.3374 164.533 56.4359C164.336 56.5344 164.139 56.8298 164.237 57.0268L165.025 59.2921C165.123 59.3906 165.32 59.5876 165.517 59.5876Z" fill="#210B04"/>
<path d="M133.319 50.0339H116.285V66.4821H133.319V50.0339Z" fill="#F9D4D3"/>
<path d="M156.064 50.0339H139.03V66.4821H156.064V50.0339Z" fill="#F9D4D3"/>
<path d="M140.606 56.042H128.691V59.6862H140.606V56.042Z" fill="#F9D4D3"/>
<path d="M131.449 51.8069H118.058V64.7093H131.449V51.8069Z" fill="#5D7AA6"/>
<path d="M154.194 51.8069H140.803V64.7093H154.194V51.8069Z" fill="#D64759"/>
<path d="M119.436 176.99C125.541 178.073 132.236 178.96 139.424 179.354C155.375 180.339 169.357 178.96 180.68 176.891C181.96 158.67 183.24 140.449 184.521 122.228C187.376 118.978 188.065 116.22 188.164 114.447C188.754 105.78 178.022 95.8325 160.791 91.4004C160.2 91.9913 155.966 96.7189 149.271 96.4235C144.249 96.2265 141 93.2717 140.113 92.4838C138.243 92.7793 132.039 94.0597 127.116 99.6737C121.11 106.568 121.701 114.743 121.799 116.22C121.011 136.51 120.224 156.7 119.436 176.99Z" fill="#163144"/>
<path d="M126.427 28.7596C124.95 31.025 124.261 34.6692 125.738 37.2299C129.578 43.7304 141.394 43.7304 141.984 42.056C142.378 40.8741 136.963 38.6088 137.258 37.8209C137.849 36.5405 155.769 39.5937 159.609 49.7384C160.496 52.2007 161.086 56.2389 161.874 56.1404C162.662 56.1404 162.563 52.6932 164.237 52.2007C165.616 51.8067 166.699 53.7766 168.471 53.3826C169.751 53.0871 170.539 51.7082 170.834 51.0188C172.508 47.5716 171.917 38.3134 165.813 31.6159C159.019 24.229 149.172 24.1305 141.984 24.1305C136.47 24.1305 129.479 24.032 126.427 28.7596Z" fill="#B15E4C"/>
<path d="M175.561 99.7722C172.804 109.227 169.948 118.584 167.29 127.941C166.699 129.812 166.207 131.585 165.616 133.555C164.434 137.593 163.253 141.631 161.973 145.669C166.207 146.654 170.342 147.738 174.478 148.821C177.825 144.094 180.09 139.661 181.862 135.623C183.635 131.29 184.619 127.448 185.407 124.494C186.884 117.599 188.361 110.902 184.422 105.682C181.764 102.235 177.924 100.56 175.561 99.7722Z" fill="#F3A984"/>
<path d="M167.191 128.039C166.601 129.911 166.108 131.684 165.518 133.653C170.933 134.343 176.25 135.032 181.764 135.722C177.038 133.161 172.213 130.502 167.487 127.941C167.388 127.941 167.29 127.941 167.191 128.039Z" fill="#210B04"/>
<path d="M163.843 129.714C170.046 131.782 176.151 133.85 182.354 135.919C184.422 129.517 186.49 123.115 188.558 116.713C188.853 115.629 189.148 113.857 188.755 111.887C187.868 105.682 182.354 102.333 181.271 101.742C180.09 101.053 178.022 99.9693 175.167 99.4768C171.523 109.424 167.683 119.569 163.843 129.714Z" fill="#163144"/>
<path d="M99.0542 123.706C99.1526 131.093 115.596 138.972 129.479 136.608C137.258 135.229 148.089 130.009 148.089 123.312C148.089 116.614 137.357 111.296 129.479 110.015C115.399 107.651 98.9557 116.22 99.0542 123.706Z" fill="#FFB000"/>
<path d="M97.085 123.115L97.2819 124.691L102.402 181.52H145.726L150.846 124.691L150.945 123.016L146.711 121.046L145.037 121.834L141.098 123.607L136.077 121.342L135.486 121.046L129.775 123.607L126.624 122.228L124.064 121.145L118.353 123.706L117.565 123.312L112.741 121.145L110.574 122.13L107.03 123.706L101.417 121.243C101.417 121.145 97.085 123.115 97.085 123.115Z" fill="white"/>
<path d="M129.479 181.52H138.44L144.84 123.804L145.037 121.933L141.098 123.706L136.077 121.44L135.88 123.115L129.479 181.52Z" fill="#5D7AA6"/>
<path d="M117.565 123.312V181.52H126.624V122.327L124.064 121.145L118.353 123.706L117.565 123.312Z" fill="#5D7AA6"/>
<path d="M101.516 121.243L101.713 123.016L106.734 181.52H115.694L110.771 123.804L110.574 122.13L107.03 123.706L101.516 121.243Z" fill="#5D7AA6"/>
<path d="M143.067 119.274C143.067 121.145 144.544 122.622 146.317 122.622C148.089 122.622 149.566 121.145 149.566 119.274C149.566 117.402 148.089 115.925 146.317 115.925C144.544 115.925 143.067 117.402 143.067 119.274Z" fill="#FFB000"/>
<path d="M138.538 117.008C138.538 118.486 140.31 119.766 142.378 119.766C144.544 119.766 146.218 118.584 146.218 117.008C146.218 115.531 144.446 114.25 142.378 114.25C140.212 114.25 138.538 115.531 138.538 117.008Z" fill="#FFB000"/>
<path d="M135.88 113.463C135.88 115.432 137.455 116.91 139.425 116.91C141.394 116.91 142.969 115.334 142.969 113.463C142.969 111.591 141.394 110.015 139.425 110.015C137.554 110.015 135.88 111.591 135.88 113.463Z" fill="#FFB000"/>
<path d="M130.661 112.379C130.661 113.955 132.04 115.235 133.812 115.235C135.584 115.235 136.963 113.955 136.963 112.379C136.963 110.803 135.584 109.523 133.812 109.523C132.04 109.621 130.661 110.902 130.661 112.379Z" fill="#FFB000"/>
<path d="M128.692 114.349C130.267 114.94 131.941 114.251 132.335 112.872C132.827 111.493 131.842 109.917 130.267 109.326C128.692 108.735 127.018 109.424 126.624 110.803C126.23 112.182 127.116 113.758 128.692 114.349Z" fill="#FFB000"/>
<path d="M122.685 117.402C124.643 117.402 126.23 115.021 126.23 112.084C126.23 109.146 124.643 106.765 122.685 106.765C120.728 106.765 119.141 109.146 119.141 112.084C119.141 115.021 120.728 117.402 122.685 117.402Z" fill="#FFB000"/>
<path d="M121.799 112.182C121.799 113.857 123.375 115.235 125.246 115.235C127.116 115.235 128.692 113.857 128.692 112.182C128.692 110.508 127.116 109.129 125.246 109.129C123.375 109.129 121.799 110.508 121.799 112.182Z" fill="#FFB000"/>
<path d="M111.953 114.152C111.953 116.516 114.021 118.486 116.482 118.486C119.043 118.486 121.012 116.516 121.012 114.152C121.012 111.788 118.944 109.818 116.482 109.818C114.021 109.818 111.953 111.788 111.953 114.152Z" fill="#FFB000"/>
<path d="M109.984 119.668C111.669 119.668 113.036 117.904 113.036 115.728C113.036 113.552 111.669 111.788 109.984 111.788C108.298 111.788 106.931 113.552 106.931 115.728C106.931 117.904 108.298 119.668 109.984 119.668Z" fill="#FFB000"/>
<path d="M115.202 110.508C115.202 111.788 116.088 112.872 117.171 112.872C118.255 112.872 119.141 111.788 119.141 110.508C119.141 109.227 118.255 108.144 117.171 108.144C116.088 108.144 115.202 109.227 115.202 110.508Z" fill="#FFB000"/>
<path d="M109.688 114.251C110.673 115.432 112.347 115.629 113.528 114.645C114.71 113.66 114.808 111.887 113.922 110.606C112.937 109.424 111.264 109.227 110.082 110.212C108.9 111.197 108.802 112.97 109.688 114.251Z" fill="#FFB000"/>
<path d="M101.22 117.008C101.22 119.372 102.599 121.243 104.273 121.243C105.946 121.243 107.325 119.372 107.325 117.008C107.325 114.645 105.946 112.773 104.273 112.773C102.599 112.872 101.22 114.743 101.22 117.008Z" fill="#FFB000"/>
<path d="M100.236 123.213C101.867 123.213 103.19 121.934 103.19 120.357C103.19 118.78 101.867 117.501 100.236 117.501C98.6042 117.501 97.2817 118.78 97.2817 120.357C97.2817 121.934 98.6042 123.213 100.236 123.213Z" fill="#FFB000"/>
<path d="M100.236 120.062C101.269 120.062 102.107 119.356 102.107 118.486C102.107 117.615 101.269 116.91 100.236 116.91C99.2028 116.91 98.3652 117.615 98.3652 118.486C98.3652 119.356 99.2028 120.062 100.236 120.062Z" fill="#FFB000"/>
<path d="M104.568 114.152C104.568 115.433 105.455 116.516 106.538 116.516C107.621 116.516 108.507 115.433 108.507 114.152C108.507 112.872 107.621 111.788 106.538 111.788C105.455 111.788 104.568 112.872 104.568 114.152Z" fill="#E29700"/>
<path d="M132.926 115.137C132.926 115.629 133.32 116.122 133.812 116.122C134.304 116.122 134.698 115.728 134.698 115.137C134.698 114.645 134.304 114.152 133.812 114.152C133.418 114.152 132.926 114.546 132.926 115.137Z" fill="#E29700"/>
<path d="M130.267 113.66C130.92 113.66 131.449 113.086 131.449 112.379C131.449 111.672 130.92 111.099 130.267 111.099C129.614 111.099 129.085 111.672 129.085 112.379C129.085 113.086 129.614 113.66 130.267 113.66Z" fill="#E29700"/>
<path d="M127.412 116.122C127.412 116.91 128.002 117.501 128.692 117.501C129.381 117.501 129.972 116.91 129.972 116.122C129.972 115.334 129.381 114.743 128.692 114.743C128.002 114.743 127.412 115.334 127.412 116.122Z" fill="#E29700"/>
<path d="M122.784 113.463C122.784 114.152 123.375 114.743 124.064 114.743C124.753 114.743 125.344 114.152 125.344 113.463C125.344 112.773 124.753 112.182 124.064 112.182C123.277 112.182 122.784 112.773 122.784 113.463Z" fill="#E29700"/>
<path d="M117.369 111.788C117.369 113.266 118.55 114.447 119.929 114.447C121.307 114.447 122.489 113.266 122.489 111.788C122.489 110.311 121.307 109.129 119.929 109.129C118.55 109.129 117.369 110.311 117.369 111.788Z" fill="#E29700"/>
<path d="M114.809 115.137C114.809 116.516 115.892 117.698 117.172 117.698C118.452 117.698 119.535 116.614 119.535 115.137C119.535 113.66 118.452 112.576 117.172 112.576C115.892 112.576 114.809 113.758 114.809 115.137Z" fill="#E29700"/>
<path d="M119.042 117.895C119.042 118.781 119.732 119.471 120.519 119.471C121.406 119.471 121.996 118.781 121.996 117.895C121.996 117.008 121.307 116.319 120.519 116.319C119.732 116.319 119.042 117.008 119.042 117.895Z" fill="#E29700"/>
<path d="M140.113 117.205C140.712 117.205 141.196 116.72 141.196 116.122C141.196 115.523 140.712 115.038 140.113 115.038C139.515 115.038 139.03 115.523 139.03 116.122C139.03 116.72 139.515 117.205 140.113 117.205Z" fill="#E29700"/>
<path d="M143.461 119.667C144.168 119.667 144.741 119.094 144.741 118.387C144.741 117.68 144.168 117.107 143.461 117.107C142.754 117.107 142.181 117.68 142.181 118.387C142.181 119.094 142.754 119.667 143.461 119.667Z" fill="#E29700"/>
<path d="M135.683 111.69C135.683 112.872 136.569 113.758 137.652 113.758C138.735 113.758 139.621 112.872 139.621 111.69C139.621 110.508 138.735 109.621 137.652 109.621C136.47 109.621 135.683 110.508 135.683 111.69Z" fill="#E29700"/>
<path d="M146.612 105.091C143.166 102.825 139.818 100.56 136.372 98.1963C132.335 101.053 128.396 103.909 124.359 106.765C124.753 108.045 125.147 109.326 125.541 110.606C127.609 110.508 129.578 110.311 131.646 110.212C134.6 110.212 137.652 110.212 140.606 110.212C143.166 115.235 146.12 120.455 149.172 125.873C153.406 133.062 157.64 139.661 161.776 145.669C164.729 151.086 171.031 152.958 175.167 150.988C179.991 148.624 182.354 140.942 178.022 135.032C167.683 125.085 157.148 115.137 146.612 105.091Z" fill="#F3A984"/>
<path d="M118.255 206.045C117.664 212.841 108.014 220.228 102.107 233.229C100.826 236.085 100.039 238.547 99.6449 239.926C96.691 238.941 93.7371 237.956 90.7832 237.07C91.5709 228.698 92.8509 219.637 94.7218 209.985C96.7895 199.052 99.3495 189.203 102.107 180.339C103.387 179.846 105.159 179.354 107.227 179.255C107.62 179.157 107.916 179.157 108.31 179.157C113.824 178.96 117.27 184.771 119.633 183.589C119.83 183.49 120.125 183.293 120.421 182.899C120.519 185.066 120.421 186.741 120.322 187.923C120.125 190.188 119.928 191.074 119.141 195.802C118.156 200.825 118.452 203.484 118.255 206.045Z" fill="#F3A984"/>
<path d="M72.9614 254.601C72.9614 255.882 73.5522 257.064 74.2415 257.852C74.4384 258.049 74.5368 258.344 74.7338 258.443L105.651 253.813C105.75 253.617 105.848 253.42 105.947 253.223C106.538 252.139 106.931 250.662 106.833 248.889C106.636 246.624 105.553 245.048 104.765 244.063C103.485 242.191 102.107 239.237 101.516 234.509C101.417 233.918 101.417 233.426 101.319 232.835C98.1681 233.032 95.0173 233.032 91.768 233.13C91.4726 233.721 91.1772 234.214 90.8818 234.805C89.2079 237.956 87.3371 240.419 85.4663 242.388C84.8755 243.078 84.1863 243.669 83.5955 244.26C83.3001 244.555 83.0047 244.851 82.8078 244.949C82.217 245.54 81.6262 245.934 81.1339 246.328C80.937 246.427 80.8385 246.525 80.6416 246.722C77.1954 249.381 73.1584 251.351 72.9614 254.601Z" fill="#F9D4D3"/>
<path d="M111.264 197.969C110.279 197.772 109.393 197.476 108.605 197.279C108.31 195.9 108.014 194.522 107.719 193.143C107.03 189.498 106.931 189.301 106.833 189.006C106.439 187.135 105.356 184.377 102.5 181.028C104.47 179.945 106.636 178.96 108.704 177.975C129.283 168.618 149.763 165.663 167.585 165.565C170.736 173.838 173.887 182.013 177.038 190.286C171.917 193.044 165.714 195.802 158.625 197.772C139.326 203.287 122.193 200.825 111.264 197.969Z" fill="#F3A984"/>
<path d="M152.028 180.142C142.674 180.93 135.584 186.839 136.175 193.241C136.766 199.643 144.741 204.075 154.095 203.287C163.449 202.499 170.539 196.59 169.948 190.188C169.357 183.884 161.382 179.354 152.028 180.142Z" fill="#F3A984"/>
<path d="M120.224 206.537C132.827 208.31 149.271 208.606 166.994 203.287C170.047 202.401 172.902 201.317 175.561 200.234C177.333 197.378 178.318 194.62 178.81 192.453C182.256 177.581 170.44 164.678 168.668 162.807C156.459 163.891 141.886 166.156 125.738 171.08C115.99 174.035 107.325 177.482 99.7435 180.93C98.5619 186.15 97.3804 191.567 96.2973 196.984C93.6388 210.28 91.571 223.183 89.9956 235.494C95.9034 236.873 101.811 238.252 107.719 239.532C111.953 228.6 116.088 217.569 120.224 206.537Z" fill="#FFB000"/>
<path d="M74.0446 260.215L107.719 255.488C107.818 255.488 107.818 255.389 107.818 255.291L107.522 253.223C107.522 253.124 107.424 253.124 107.325 253.124L73.6507 257.852C73.5523 257.852 73.5522 257.95 73.5522 258.049L73.8476 260.117C73.9461 260.215 73.9461 260.215 74.0446 260.215Z" fill="#5D7AA6"/>
<path d="M83.6938 244.457L87.2385 245.737C87.8293 245.934 88.5186 245.54 88.814 244.949C88.9124 244.752 88.9124 244.752 88.9124 244.555C88.9124 244.063 88.5186 243.57 88.0263 243.373L85.5647 242.487C84.9739 243.275 84.3831 243.866 83.6938 244.457Z" fill="#5D7AA6"/>
<path d="M80.7402 246.919L85.4665 248.593C86.0573 248.79 86.7465 248.495 87.0419 247.904C87.1404 247.707 87.1404 247.707 87.1404 247.51C87.1404 247.018 86.7465 246.525 86.2542 246.328L83.0049 245.146C82.4141 245.737 81.8233 246.131 81.331 246.525C81.0356 246.624 80.9372 246.722 80.7402 246.919Z" fill="#5D7AA6"/>
<path d="M137.357 244.063H271.76C275.994 203.189 280.228 162.216 284.462 121.342C235.427 121.145 186.392 120.849 137.357 120.652V244.063V244.063Z" fill="#A03348"/>
<path d="M155.868 244.063H290.271C294.505 203.189 298.739 162.216 302.973 121.342C253.938 121.145 204.903 120.849 155.868 120.652V244.063V244.063Z" fill="#D64759"/>
<path d="M138.538 121.243H287.12C287.514 121.243 287.809 120.948 287.809 120.554C287.809 120.16 287.514 119.865 287.12 119.865H138.538C138.145 119.865 137.849 120.16 137.849 120.554C137.849 120.948 138.145 121.243 138.538 121.243Z" fill="#A03348"/>
<path d="M96.0021 203.977C96.199 203.977 96.3959 203.78 96.4944 203.583L98.956 187.922C98.956 187.627 98.8575 187.43 98.5621 187.43C98.2667 187.331 98.0698 187.528 98.0698 187.824L95.5098 203.386C95.5098 203.681 95.6082 203.878 96.0021 203.977C95.9036 203.977 95.9036 203.977 96.0021 203.977Z" fill="#210B04"/>
<path d="M90.6852 200.529C90.8821 200.529 91.079 200.431 91.1775 200.135L96.3961 178.27C96.4945 177.975 96.2976 177.778 96.1007 177.679C95.8053 177.679 95.6084 177.778 95.5099 178.073L90.2913 199.938C90.1929 200.234 90.3898 200.431 90.5867 200.529C90.6852 200.529 90.6852 200.529 90.6852 200.529Z" fill="#210B04"/>
<path d="M102.008 180.831C102.205 180.732 105.75 178.96 105.75 178.96C105.947 178.861 106.045 178.566 105.947 178.369C105.848 178.172 105.553 178.073 105.356 178.172L101.811 180.043C101.614 180.142 101.516 180.437 101.614 180.634C101.614 180.732 101.811 180.831 102.008 180.831Z" fill="#210B04"/>
<path d="M301.004 223.182H471.051L521.07 80.2708C517.526 77.2176 513.882 74.1643 510.338 71.1111C457.266 74.1643 404.095 77.2176 351.023 80.2708C334.383 127.941 317.644 175.512 301.004 223.182Z" fill="#A03348"/>
<path d="M290.271 214.023H460.318L510.338 71.1111H340.291L290.271 214.023Z" fill="#D64759"/>
<path d="M205.001 246.623H337.534C341.669 205.749 345.903 164.777 350.038 123.903C301.693 123.706 253.347 123.41 205.001 123.213V246.623V246.623Z" fill="#A03348"/>
<path d="M223.217 246.623H355.749C359.884 205.749 364.118 164.777 368.254 123.903C319.908 123.706 271.562 123.41 223.217 123.213V246.623V246.623Z" fill="#D64759"/>
<path d="M322.075 209.886C322.469 209.886 322.764 209.591 322.764 209.197V123.115C322.764 122.721 322.469 122.425 322.075 122.425C321.681 122.425 321.386 122.721 321.386 123.115V209.197C321.386 209.591 321.681 209.886 322.075 209.886Z" fill="#A03348"/>
<path d="M358.801 314.78C362.346 314.78 365.891 314.78 369.337 314.78C370.026 295.869 370.716 276.86 371.405 257.95H355.749C356.734 276.86 357.817 295.869 358.801 314.78Z" fill="#210B04"/>
<path d="M225.594 263.732L485.834 263.732L485.834 246.594L225.594 246.594L225.594 263.732Z" fill="#163144"/>
<path d="M455.394 314.78C458.939 314.78 462.484 314.78 465.93 314.78C466.619 295.869 467.308 276.86 467.998 257.95H452.342C453.326 276.86 454.311 295.869 455.394 314.78Z" fill="#163144"/>
<path d="M334.284 314.78C337.829 314.78 341.373 314.78 344.819 314.78C345.509 295.869 346.198 276.86 346.887 257.95H331.231C332.216 276.86 333.201 295.869 334.284 314.78Z" fill="#163144"/>
<path d="M236.509 314.78C240.054 314.78 243.599 314.78 247.045 314.78C247.734 295.869 248.424 276.86 249.113 257.95H233.457C234.54 276.86 235.525 295.869 236.509 314.78Z" fill="#163144"/>
<path d="M223.252 246.59L342.394 246.59L342.394 210.148L223.252 210.148L223.252 246.59Z" fill="#A03348"/>
<path d="M264.966 218.947C260.141 223.773 248.03 223.084 235.131 229.289C232.276 230.668 230.11 232.047 228.928 232.835C227.254 230.175 225.679 227.516 224.005 224.857C230.011 219.046 236.805 212.939 244.485 206.734C253.15 199.741 261.52 193.832 269.298 188.907C270.578 189.301 272.252 190.089 273.926 191.468C274.221 191.665 274.517 191.862 274.812 192.059C279.145 195.506 278.061 202.105 280.622 202.795C280.818 202.893 281.212 202.893 281.705 202.696C280.326 204.37 279.145 205.651 278.357 206.439C276.683 208.015 275.994 208.606 272.351 211.757C268.314 214.909 266.738 217.174 264.966 218.947Z" fill="#F3A984"/>
<path d="M202.638 216.485C201.654 217.174 201.063 218.356 200.669 219.44C200.571 219.735 200.472 219.932 200.472 220.228L221.937 242.881C222.134 242.782 222.43 242.881 222.626 242.782C223.808 242.585 225.285 242.093 226.663 241.009C228.436 239.631 229.027 237.759 229.42 236.577C230.208 234.509 231.882 231.653 235.328 228.402C235.722 228.008 236.214 227.713 236.608 227.319C234.738 224.857 232.768 222.296 230.897 219.735C230.307 219.834 229.716 219.932 229.027 219.932C225.383 220.326 222.331 220.228 219.771 219.834C218.885 219.735 217.999 219.538 217.211 219.341C216.817 219.243 216.423 219.243 216.226 219.144C215.439 218.947 214.749 218.75 214.06 218.553C213.863 218.455 213.666 218.455 213.469 218.356C209.334 216.879 205.395 214.712 202.638 216.485Z" fill="#FFB000"/>
<path d="M277.373 206.045C276.388 205.848 275.502 205.552 274.714 205.355C274.419 203.977 274.123 202.598 273.828 201.219C273.139 197.575 273.04 197.378 272.942 197.082C272.548 195.211 271.465 192.453 268.609 189.104C270.579 188.021 272.745 187.036 274.813 186.051C295.392 176.694 315.872 173.74 333.694 173.641C336.845 181.914 339.996 190.089 343.146 198.363C338.026 201.12 331.823 203.878 324.734 205.848C305.435 211.265 288.204 208.803 277.373 206.045Z" fill="#F3A984"/>
<path d="M318.137 188.218C308.783 189.006 301.694 194.915 302.284 201.317C302.875 207.719 310.851 212.151 320.205 211.363C329.559 210.575 336.648 204.666 336.057 198.264C335.467 191.862 327.491 187.43 318.137 188.218Z" fill="#F3A984"/>
<path d="M217.211 219.44L218.196 223.182C218.393 223.872 219.082 224.167 219.771 223.97C219.968 223.97 219.968 223.872 220.165 223.773C220.559 223.478 220.756 222.887 220.657 222.394L219.968 219.834C218.885 219.735 217.999 219.637 217.211 219.44Z" fill="#163144"/>
<path d="M213.47 218.455L214.848 223.182C215.045 223.872 215.636 224.266 216.325 224.069C216.522 224.069 216.522 223.97 216.719 223.872C217.113 223.576 217.31 222.985 217.211 222.493L216.325 219.144C215.537 218.947 214.848 218.75 214.159 218.553C213.864 218.455 213.667 218.455 213.47 218.455Z" fill="#163144"/>
<path d="M282.886 211.856C297.656 213.629 314.493 214.121 332.906 212.25C336.844 211.856 340.586 211.363 344.328 210.772C343.343 198.461 342.26 186.149 341.275 173.936C333.497 172.361 322.075 170.982 308.487 172.755C291.256 174.921 278.258 181.126 270.677 185.558C255.71 197.082 240.744 208.704 225.777 220.228C227.747 224.069 230.799 228.501 235.525 232.441C236.411 233.13 237.199 233.82 237.987 234.41C252.855 226.827 267.92 219.341 282.886 211.856Z" fill="#163144"/>
<path d="M308.487 220.622C303.663 225.448 291.551 224.758 278.653 230.963C275.797 232.342 273.631 233.721 272.45 234.509C270.776 231.85 269.2 229.19 267.526 226.531C273.533 220.72 280.327 214.614 288.007 208.409C296.672 201.416 305.041 195.506 312.82 190.582C314.1 190.976 315.774 191.763 317.447 193.142C317.743 193.339 318.038 193.536 318.334 193.733C322.666 197.18 321.583 203.779 324.143 204.469C324.34 204.567 324.734 204.567 325.226 204.37C323.848 206.045 322.666 207.325 321.878 208.113C320.204 209.689 319.515 210.28 315.872 213.432C311.933 216.583 310.26 218.849 308.487 220.622Z" fill="#F3A984"/>
<path d="M246.159 218.159C245.175 218.849 244.584 220.031 244.19 221.114C244.092 221.409 243.993 221.606 243.993 221.902L265.458 244.555C265.655 244.457 265.951 244.555 266.147 244.457C267.329 244.26 268.806 243.767 270.184 242.684C271.957 241.305 272.548 239.433 272.941 238.252C273.729 236.183 275.403 233.327 278.849 230.077C279.243 229.683 279.735 229.387 280.129 228.993C278.259 226.531 276.289 223.97 274.418 221.409C273.828 221.508 273.237 221.606 272.548 221.606C268.904 222 265.852 221.902 263.292 221.508C262.406 221.409 261.52 221.212 260.732 221.015C260.338 220.917 259.944 220.917 259.747 220.819C258.96 220.622 258.27 220.425 257.581 220.228C257.384 220.129 257.187 220.129 256.99 220.031C252.855 218.652 248.916 216.386 246.159 218.159Z" fill="#FFB000"/>
<path d="M320.893 207.719C319.909 207.522 319.022 207.227 318.235 207.03C317.939 205.651 317.644 204.272 317.348 202.893C316.659 199.249 316.561 199.052 316.462 198.756C316.068 196.885 314.985 194.127 312.13 190.778C314.099 189.695 316.265 188.71 318.333 187.725C338.912 178.368 359.392 175.414 377.214 175.315C380.365 183.588 383.516 191.763 386.667 200.037C381.547 202.794 375.344 205.552 368.254 207.522C348.955 213.038 331.823 210.575 320.893 207.719Z" fill="#F3A984"/>
<path d="M361.658 189.99C352.303 190.778 345.214 196.688 345.805 203.09C346.396 209.492 354.371 213.924 363.725 213.136C373.079 212.348 380.169 206.439 379.578 200.037C378.987 193.635 371.012 189.104 361.658 189.99Z" fill="#F3A984"/>
<path d="M260.732 221.114L261.717 224.857C261.914 225.546 262.603 225.842 263.292 225.645C263.489 225.645 263.489 225.546 263.686 225.448C264.08 225.152 264.277 224.561 264.179 224.069L263.489 221.508C262.406 221.508 261.52 221.311 260.732 221.114Z" fill="#163144"/>
<path d="M256.99 220.129L258.369 224.857C258.566 225.546 259.156 225.94 259.846 225.743C260.043 225.743 260.043 225.645 260.24 225.546C260.633 225.251 260.83 224.66 260.732 224.167L259.846 220.819C259.058 220.622 258.369 220.425 257.679 220.228C257.384 220.228 257.187 220.129 256.99 220.129Z" fill="#163144"/>
<path d="M326.407 213.53C341.176 215.303 358.014 215.795 376.426 213.924C380.365 213.53 384.107 213.038 387.848 212.447C386.863 200.135 385.78 187.824 384.796 175.611C377.017 174.035 365.595 172.656 352.007 174.429C334.776 176.596 321.779 182.801 314.197 187.233C299.231 198.756 284.264 210.378 269.298 221.902C271.267 225.743 274.319 230.175 279.046 234.115C279.932 234.804 280.72 235.494 281.507 236.085C296.474 228.599 311.44 221.114 326.407 213.53Z" fill="#163144"/>
<path d="M368.058 93.5671C367.073 98.1962 365.99 102.431 364.809 106.371C372.193 107.848 379.578 109.326 386.963 110.902C387.061 108.636 387.258 106.371 387.357 104.106C387.554 100.166 387.849 96.2264 388.046 92.2867C388.046 91.9912 388.046 91.6958 388.046 91.4003C388.243 86.9682 388.538 82.536 388.735 78.2024L381.154 77.119L376.329 76.4295L374.064 76.1341L370.815 75.6416C370.519 79.8768 369.83 84.4074 368.944 89.135C368.649 90.7109 368.353 92.1882 368.058 93.5671Z" fill="#F3A984"/>
<path d="M331.134 172.065C336.845 174.33 343.54 176.596 351.22 178.27C362.445 180.831 372.489 181.52 380.563 181.422C385.978 165.959 391.295 150.397 396.711 134.934C401.24 132.274 405.769 129.615 410.299 127.054C409.216 124.198 402.422 107.061 383.221 99.0827C363.528 90.9079 346.1 108.439 347.38 112.576C341.965 132.373 336.549 152.268 331.134 172.065Z" fill="#F3A984"/>
<path d="M370.814 75.7402C370.519 79.9754 369.83 84.506 368.944 89.2336C368.648 90.711 368.353 92.1884 367.959 93.5673C368.353 93.7642 368.845 93.9612 369.337 94.0597C373.67 95.0446 378.199 91.5974 379.381 86.4758C380.267 82.4377 378.987 78.498 376.23 76.5282L373.965 76.2327L370.814 75.7402Z" fill="#210B04"/>
<path d="M404.292 63.6255C403.504 66.3833 402.618 69.2396 401.83 71.9973C400.255 75.0506 397.104 80.0737 391.393 83.9149C390.409 84.6043 373.965 95.1429 363.331 86.4757C357.226 81.4526 355.159 71.8989 358.113 62.5421C358.506 61.4587 358.408 61.7542 359.393 58.6025C362.74 47.6699 362.15 45.2076 363.823 42.0558C367.664 34.7674 377.805 33.0931 379.085 32.9946C389.424 31.4187 400.255 37.4267 404.095 45.897C407.738 53.7764 404.981 61.5572 404.292 63.6255Z" fill="#F3A984"/>
<path d="M370.716 70.0275C370.027 69.4366 369.337 69.1411 368.55 68.9441C367.762 68.7471 366.974 68.7471 366.187 68.9441C366.876 69.5351 367.565 69.8305 368.353 70.0275C369.14 70.2245 369.928 70.323 370.716 70.0275Z" fill="#210B04"/>
<path d="M366.482 60.1783C366.187 61.5572 364.907 62.5422 363.725 62.2467C362.445 61.9512 361.657 60.5723 361.953 59.1934C362.248 57.8145 363.528 56.8296 364.71 57.1251C365.891 57.4206 366.679 58.7995 366.482 60.1783Z" fill="#210B04"/>
<path d="M368.55 63.1331C368.845 63.1331 369.042 62.8377 369.042 62.6407C368.747 59.9814 367.073 57.8146 364.906 57.0266C363.725 56.6327 362.642 56.7312 361.854 56.9282L361.46 55.0568C361.362 54.7613 361.165 54.6628 360.869 54.6628C360.574 54.7613 360.476 54.9583 360.476 55.2538L361.066 57.6176C361.066 57.7161 361.165 57.8146 361.263 57.9131C361.362 58.0116 361.559 58.0116 361.657 57.9131C362.346 57.7161 363.528 57.5191 364.71 57.9131C366.58 58.504 367.959 60.4739 368.254 62.7392C368.156 63.0347 368.353 63.1331 368.55 63.1331Z" fill="#210B04"/>
<path d="M385.091 66.1864C384.796 67.5653 383.516 68.5502 382.334 68.2547C381.054 67.9593 380.267 66.5804 380.562 65.2015C380.857 63.8226 382.137 62.8377 383.319 63.1332C384.599 63.4286 385.387 64.8075 385.091 66.1864Z" fill="#210B04"/>
<path d="M387.258 69.1412C387.553 69.1412 387.75 68.8457 387.75 68.6487C387.455 65.9895 385.781 63.8226 383.614 63.0347C382.63 62.7392 381.547 62.6407 380.562 62.9362L380.168 61.0649C380.07 60.7694 379.873 60.6709 379.577 60.6709C379.282 60.7694 379.184 60.9664 379.282 61.2619L379.873 63.6257C379.873 63.7241 379.971 63.8226 380.07 63.9211C380.168 64.0196 380.267 64.0196 380.464 63.9211C381.547 63.6257 382.531 63.6257 383.516 63.9211C385.387 64.5121 386.765 66.4819 387.061 68.7472C386.765 68.9442 386.962 69.1412 387.258 69.1412Z" fill="#210B04"/>
<path d="M360.673 52.7915C360.771 53.284 361.953 53.087 365.793 53.7765C370.125 54.4659 371.405 55.1553 371.602 54.6629C371.996 53.9734 369.732 51.0187 366.679 50.4277C363.627 50.0338 360.476 52.0036 360.673 52.7915Z" fill="#210B04"/>
<path d="M380.562 56.5341C380.562 57.0266 381.744 57.2236 385.289 58.7994C389.227 60.5723 390.31 61.5572 390.704 61.1632C391.295 60.5723 389.818 57.1251 387.061 55.8447C384.206 54.5643 380.661 55.7462 380.562 56.5341Z" fill="#210B04"/>
<path d="M403.701 73.0807C402.027 76.6264 398.581 78.5962 395.922 77.3159C393.264 76.1339 392.476 72.1943 394.15 68.6486C395.824 65.1029 399.27 63.133 401.929 64.4134C404.489 65.5953 405.276 69.4365 403.701 73.0807Z" fill="#F3A984"/>
<path d="M397.596 78.104C398.876 78.104 400.255 77.6115 401.436 76.6266C401.633 76.4296 401.633 76.1341 401.535 75.9372C401.338 75.7402 401.042 75.7402 400.845 75.8387C399.27 77.1191 397.498 77.4145 396.021 76.8236C395.331 76.5281 394.839 76.0357 394.445 75.3462C394.347 75.1492 394.051 75.0507 393.756 75.1492C393.559 75.2477 393.461 75.5432 393.559 75.8387C394.051 76.7251 394.741 77.3161 395.627 77.71C396.316 78.0055 396.907 78.104 397.596 78.104Z" fill="#210B04"/>
<path d="M401.928 76.1342C402.027 76.1342 402.125 76.1342 402.224 76.0357C402.815 75.4447 403.405 74.6568 403.799 73.8688C403.898 73.6719 403.799 73.3764 403.602 73.2779C403.405 73.1794 403.11 73.2779 403.012 73.4749C402.618 74.1643 402.125 74.8538 401.633 75.4447C401.436 75.6417 401.436 75.9372 401.633 76.1342C401.633 76.0357 401.83 76.1342 401.928 76.1342Z" fill="#210B04"/>
<path d="M403.996 72.7853C404.193 72.7853 404.39 72.6868 404.39 72.4899C405.769 68.8457 404.686 65.2015 402.027 63.9211C401.436 63.6256 400.747 63.5271 400.058 63.5271C399.762 63.5271 399.565 63.7241 399.565 64.0196C399.565 64.315 399.762 64.512 400.058 64.512C400.649 64.512 401.141 64.6105 401.633 64.8075C403.898 65.7924 404.686 68.9442 403.504 72.1944C403.406 72.3914 403.504 72.6868 403.799 72.7853C403.799 72.7853 403.898 72.7853 403.996 72.7853Z" fill="#210B04"/>
<path d="M396.513 73.9673C396.612 73.9673 396.71 73.9673 396.809 73.8688L401.929 69.0427C402.126 68.8458 402.126 68.5503 401.929 68.3533C401.732 68.1563 401.436 68.1563 401.239 68.3533L396.119 73.1794C395.922 73.3764 395.922 73.6719 396.119 73.8688C396.218 73.8688 396.316 73.9673 396.513 73.9673Z" fill="#210B04"/>
<path d="M399.27 71.0124C399.566 71.0124 399.763 70.7169 399.763 70.52L399.467 68.1562C399.467 67.8607 399.172 67.6637 398.975 67.7622C398.68 67.7622 398.581 68.0577 398.581 68.2547L398.876 70.6185C398.876 70.8154 399.073 71.0124 399.27 71.0124Z" fill="#210B04"/>
<path d="M369.841 54.6193L353.234 50.8281L349.576 66.8634L366.182 70.6546L369.841 54.6193Z" fill="#F9D4D3"/>
<path d="M392.103 59.6511L375.496 55.8599L371.837 71.8952L388.444 75.6864L392.103 59.6511Z" fill="#F9D4D3"/>
<path d="M375.6 62.0196L363.985 59.3691L363.175 62.9219L374.79 65.5723L375.6 62.0196Z" fill="#F9D4D3"/>
<path d="M367.645 55.8373L354.59 52.8569L351.72 65.4355L364.775 68.4159L367.645 55.8373Z" fill="#5D7AA6"/>
<path d="M389.886 60.9596L376.831 57.9792L373.961 70.5578L387.016 73.5382L389.886 60.9596Z" fill="#D64759"/>
<path d="M328.18 172.164C333.201 175.512 339.503 179.058 347.085 182.013C363.43 188.415 378.199 189.104 387.849 188.809C393.166 171.376 398.483 153.844 403.8 136.411C407.345 133.949 408.526 131.388 409.117 129.714C411.578 121.342 403.308 109.326 387.553 101.151C386.864 101.643 381.645 105.288 375.245 103.416C370.421 102.037 367.861 98.4917 367.27 97.5068C365.399 97.4083 358.999 97.2113 352.993 101.643C345.608 106.962 344.328 115.137 344.131 116.614C338.715 135.131 333.398 153.647 328.18 172.164Z" fill="#F9D4D3"/>
<path d="M367.959 32.3053C365.202 34.9645 365.399 40.0861 365.399 40.3816C365.497 42.3514 365.497 44.0258 366.58 44.8137C368.845 46.4881 372.586 42.3514 376.427 43.5333C378.888 44.3213 378.396 46.3896 381.645 50.8217C387.258 58.4056 393.953 59.0951 395.233 64.7091C395.332 65.2015 395.627 66.8759 396.415 66.9744C397.399 67.0729 397.99 63.7242 399.664 63.6257C401.141 63.5272 401.732 65.694 403.504 65.694C404.883 65.694 405.867 64.5121 406.359 63.9212C408.821 60.9664 410.298 51.7082 405.769 43.8288C400.747 35.063 391.196 32.7977 384.205 31.2219C378.691 29.9415 371.897 28.3656 367.959 32.3053Z" fill="#B15E4C"/>
<path d="M365.103 78.3995C364.611 81.5512 370.322 84.9 372.193 83.7181C373.276 83.1271 373.177 80.9603 373.079 80.1724C373.079 79.6799 372.783 75.6417 370.026 75.0508C367.86 74.5583 365.3 76.5282 365.103 78.3995Z" fill="white"/>
<path d="M398.286 37.4269C396.415 45.5033 400.452 53.3826 407.246 54.9585C414.04 56.5343 421.129 51.2158 422.902 43.041C424.773 34.9646 420.736 27.0853 413.942 25.5094C407.148 23.9335 400.157 29.2521 398.286 37.4269Z" fill="#B15E4C"/>
<path d="M364.316 26.6912C363.036 32.2068 365.695 37.4268 370.125 38.5102C374.556 39.4952 379.184 35.851 380.464 30.4339C381.744 24.9184 379.086 19.6983 374.655 18.6149C370.125 17.63 365.596 21.2742 364.316 26.6912Z" fill="#B15E4C"/>
<path d="M363.626 100.068C359.589 98.9842 353.485 98.0977 346.789 99.9691C340.783 101.643 339.207 104.303 333.299 106.47C326.21 109.03 324.241 106.864 312.524 107.651C304.351 108.144 288.105 109.227 284.855 117.501C284.658 117.993 283.477 121.145 284.954 123.903C287.612 128.729 295.982 126.562 308.093 128.039C325.324 130.108 328.376 137.002 336.647 134.737C341.669 133.358 347.971 128.827 353.189 114.546L363.626 100.068Z" fill="#F9D4D3"/>
<path d="M342.358 246.623H476.761C480.995 205.749 485.229 164.777 489.463 123.903C440.428 123.706 391.393 123.41 342.358 123.213V246.623V246.623Z" fill="#A03348"/>
<path d="M360.869 246.623H495.272C499.506 205.749 503.74 164.777 507.974 123.903C458.939 123.706 409.904 123.41 360.869 123.213V246.623Z" fill="#D64759"/>
<path d="M343.54 123.804H492.121C492.515 123.804 492.811 123.509 492.811 123.115C492.811 122.721 492.515 122.425 492.121 122.425H343.54C343.146 122.425 342.851 122.721 342.851 123.115C342.851 123.509 343.244 123.804 343.54 123.804Z" fill="#A03348"/>
<path d="M388.537 103.022C388.439 102.136 393.953 100.166 402.618 99.5751C407.639 99.2796 435.603 97.4083 445.253 113.364C446.237 114.94 449.093 119.667 447.419 123.706C445.351 128.63 437.474 129.911 428.514 130.403C417.683 130.895 397.695 130.305 367.368 122.031C364.808 116.614 365.497 114.25 366.285 112.97C370.519 106.962 390.113 115.629 393.362 109.917C393.855 109.03 394.248 107.356 393.559 106.076C392.279 103.712 388.537 103.81 388.537 103.022Z" fill="#F9D4D3"/>
<path d="M372.39 111.493C365.104 112.084 357.817 112.576 350.531 113.167C347.577 129.123 348.66 133.062 350.334 133.653C352.402 134.441 356.833 129.517 357.325 129.024C359.984 125.971 360.181 123.903 362.839 122.228C365.005 120.849 367.27 120.751 368.747 120.751C370.027 117.796 371.208 114.644 372.39 111.493Z" fill="#F3A984"/>
<path d="M288.498 115.826C284.166 115.629 279.833 115.531 275.501 115.334C261.618 118.781 254.725 121.243 254.922 122.819C255.119 124.691 265.359 125.282 285.446 124.592C287.317 124.395 288.991 123.312 289.68 121.539C290.467 119.569 290.074 117.304 288.498 115.826Z" fill="#F3A984"/>
<path d="M371.701 112.084C371.799 112.084 402.028 108.242 402.028 108.242C402.323 108.242 402.421 107.947 402.421 107.75C402.421 107.454 402.126 107.257 401.929 107.356L371.701 111.197C371.405 111.197 371.307 111.493 371.307 111.69C371.208 111.887 371.405 112.084 371.701 112.084Z" fill="#210B04"/>
<path d="M405.966 107.75H419.16C419.456 107.75 419.652 107.553 419.652 107.258C419.652 106.962 419.456 106.765 419.16 106.765H405.966C405.671 106.765 405.474 106.962 405.474 107.258C405.474 107.455 405.671 107.75 405.966 107.75Z" fill="#210B04"/>
<path d="M339.011 132.472C339.306 132.472 339.503 132.275 339.503 131.979V127.941C339.503 127.645 339.306 127.448 339.011 127.448C338.715 127.448 338.519 127.645 338.519 127.941V131.979C338.519 132.275 338.715 132.472 339.011 132.472Z" fill="#210B04"/>
<path d="M341.571 122.425C341.768 122.425 341.866 122.327 341.965 122.228L352.894 104.795C352.993 104.598 352.993 104.303 352.796 104.106C352.599 104.007 352.303 104.007 352.106 104.204L341.177 121.637C341.079 121.834 341.079 122.13 341.275 122.327C341.374 122.425 341.472 122.425 341.571 122.425Z" fill="#210B04"/>
<path d="M284.954 209.689C285.151 209.689 285.348 209.591 285.446 209.492L301.397 190.976C301.594 190.68 301.594 190.286 301.299 190.089C301.003 189.892 300.61 189.892 300.413 190.188L284.461 208.704C284.265 209 284.265 209.394 284.56 209.591C284.658 209.689 284.855 209.689 284.954 209.689Z" fill="#3E588F"/>
<path d="M303.465 189.498C303.564 189.498 339.208 182.111 339.208 182.111C339.601 182.013 339.798 181.717 339.7 181.323C339.601 180.929 339.306 180.733 338.912 180.831L303.268 188.218C302.875 188.316 302.678 188.612 302.776 189.006C302.875 189.301 303.17 189.498 303.465 189.498Z" fill="#3E588F"/>
<path d="M484.934 225.645H654.98L705 82.733C701.455 79.6797 697.812 76.6265 694.267 73.5732C641.195 76.6265 588.025 79.6797 534.953 82.733C518.313 130.403 501.574 177.975 484.934 225.645Z" fill="#A03348"/>
<path d="M474.201 216.485H644.248L694.267 73.5732H524.221L474.201 216.485Z" fill="#D64759"/>
<path d="M388.932 249.086H521.464C525.599 208.211 529.833 167.239 533.969 126.365C485.623 126.168 437.277 125.872 388.932 125.675V249.086V249.086Z" fill="#A03348"/>
<path d="M407.147 249.086H539.68C543.815 208.211 548.049 167.239 552.184 126.365C503.839 126.168 455.493 125.872 407.147 125.675V249.086V249.086Z" fill="#D64759"/>
<path d="M506.005 212.348C506.399 212.348 506.694 212.053 506.694 211.659V125.577C506.694 125.183 506.399 124.887 506.005 124.887C505.611 124.887 505.315 125.183 505.315 125.577V211.757C505.414 212.053 505.709 212.348 506.005 212.348Z" fill="#A03348"/>
<path d="M542.732 317.242C546.277 317.242 549.821 317.242 553.268 317.242C553.957 298.332 554.646 279.323 555.335 260.412H539.68C540.763 279.323 541.747 298.233 542.732 317.242Z" fill="#210B04"/>
<path d="M409.594 266.191L669.834 266.191L669.834 249.054L409.594 249.054L409.594 266.191Z" fill="#163144"/>
<path d="M639.325 317.242C642.87 317.242 646.414 317.242 649.86 317.242C650.55 298.332 651.239 279.323 651.928 260.412H636.272C637.257 279.323 638.34 298.233 639.325 317.242Z" fill="#163144"/>
<path d="M518.214 317.242C521.759 317.242 525.304 317.242 528.75 317.242C529.439 298.332 530.129 279.323 530.818 260.412H515.162C516.245 279.323 517.23 298.233 518.214 317.242Z" fill="#163144"/>
<path d="M420.539 317.242C424.083 317.242 427.628 317.242 431.074 317.242C431.764 298.332 432.453 279.323 433.142 260.412H417.486C418.471 279.323 419.456 298.233 420.539 317.242Z" fill="#163144"/>
<path d="M596.493 67.3684C601.768 67.3684 606.044 61.9004 606.044 55.1554C606.044 48.4103 601.768 42.9424 596.493 42.9424C591.219 42.9424 586.942 48.4103 586.942 55.1554C586.942 61.9004 591.219 67.3684 596.493 67.3684Z" fill="#210B04"/>
<path d="M564.591 65.2016C569.866 65.2016 574.142 59.7337 574.142 52.9886C574.142 46.2436 569.866 40.7756 564.591 40.7756C559.316 40.7756 555.04 46.2436 555.04 52.9886C555.04 59.7337 559.316 65.2016 564.591 65.2016Z" fill="#210B04"/>
<path d="M407.253 249.049L526.395 249.049L526.395 212.607L407.253 212.607L407.253 249.049Z" fill="#A03348"/>
<path d="M468.49 186.937C472.429 194.127 476.367 201.219 480.306 208.409C498.423 212.151 521.267 214.811 547.36 213.235C558.092 212.644 567.939 211.363 576.997 209.689C571.976 196.294 566.855 182.998 561.834 169.603C545.784 170.391 527.372 172.459 507.285 176.596C493.106 179.55 480.109 183.096 468.49 186.937Z" fill="#F3A984"/>
<path d="M439.64 298.824C442.594 299.317 445.45 299.809 448.404 300.302C449.29 295.18 450.668 287.202 452.933 277.353C459.727 247.017 465.536 237.464 463.961 221.607C463.272 215.008 461.204 205.257 454.016 193.733C445.942 192.453 437.868 191.074 429.893 189.794C433.043 209.295 435.603 230.175 437.376 252.435C438.557 268.587 439.345 284.05 439.64 298.824Z" fill="#F3A984"/>
<path d="M407.049 314.78L452.933 316.75C453.524 314.681 454.016 311.628 453.031 308.279C452.638 306.999 452.244 306.211 451.948 305.719C450.767 303.355 449.388 299.317 448.896 292.422C445.942 291.93 443.087 291.437 440.133 290.945C428.317 307.393 421.917 310.545 418.175 310.052C417.191 309.954 413.547 309.264 410.298 311.234C408.723 312.219 407.738 313.696 407.049 314.78Z" fill="#F3A984"/>
<path d="M453.917 318.72L404.981 317.242C404.883 315.272 405.08 312.416 406.655 309.855C409.215 305.916 413.843 305.128 418.372 303.749C422.901 302.37 429.203 300.006 436.686 295.279C437.277 296.657 437.868 298.726 437.474 301.09C437.179 303.552 436.096 304.438 436.194 305.522C436.391 307.295 439.936 309.461 454.114 310.939C454.016 313.598 454.016 316.159 453.917 318.72Z" fill="#B15E4C"/>
<path d="M434.914 290.846H463.271C463.764 266.322 464.256 241.797 464.748 217.273C473.314 215.599 481.782 213.924 490.349 212.25C502.361 197.575 514.374 182.998 526.485 168.322C526.485 166.353 526.485 164.481 526.485 162.511C514.472 163.989 502.46 165.466 490.349 167.042C471.05 172.459 451.751 177.876 432.452 183.392C430.975 184.475 428.12 186.839 426.347 190.877C423.098 197.969 432.058 262.579 434.914 290.846Z" fill="#F9D4D3"/>
<path d="M475.777 300.104C478.731 300.597 481.587 301.089 484.54 301.582C485.427 296.46 486.805 288.482 489.07 278.633C495.864 248.298 501.673 238.744 500.098 222.887C499.408 216.288 497.341 206.537 490.153 195.014C482.079 193.733 474.005 192.354 466.029 191.074C469.18 210.575 471.74 231.456 473.513 253.715C474.694 269.867 475.482 285.331 475.777 300.104Z" fill="#F3A984"/>
<path d="M443.186 316.06L489.07 318.03C489.66 315.962 490.153 312.908 489.168 309.56C488.774 308.279 488.38 307.491 488.085 306.999C486.903 304.635 485.525 300.695 485.033 293.702C482.079 293.21 479.223 292.718 476.269 292.225C464.454 308.673 458.054 311.825 454.312 311.333C453.327 311.234 449.684 310.545 446.435 312.514C444.859 313.499 443.875 314.977 443.186 316.06Z" fill="#F3A984"/>
<path d="M490.054 320L441.118 318.523C441.019 316.553 441.216 313.696 442.792 311.136C445.352 307.196 449.979 306.408 454.509 305.029C459.038 303.65 465.34 301.286 472.823 296.559C473.414 297.938 474.005 300.006 473.611 302.37C473.315 304.832 472.232 305.719 472.331 306.802C472.528 308.575 476.072 310.742 490.251 312.219C490.153 314.878 490.054 317.439 490.054 320Z" fill="#B15E4C"/>
<path d="M471.05 292.225H499.408C499.9 267.701 500.393 243.176 500.885 218.652C509.451 216.977 517.919 215.303 526.485 213.629C526.485 198.559 526.485 183.49 526.485 168.421C507.187 173.838 487.888 179.255 468.589 184.771C467.112 185.854 464.256 188.218 462.484 192.256C459.235 199.249 468.195 263.86 471.05 292.225Z" fill="#F9D4D3"/>
<path d="M465.143 236.873C465.438 236.873 465.635 236.577 465.635 236.38L460.515 199.84C460.515 199.544 460.22 199.347 460.023 199.446C459.727 199.446 459.629 199.741 459.629 199.938L464.749 236.479C464.749 236.676 464.946 236.873 465.143 236.873Z" fill="#210B04"/>
<path d="M458.25 194.718C458.349 194.718 458.546 194.62 458.644 194.521L461.893 190.089C462.09 189.892 461.992 189.597 461.795 189.4C461.598 189.301 461.303 189.301 461.106 189.498L457.856 193.93C457.659 194.127 457.758 194.423 457.955 194.62C458.152 194.62 458.25 194.718 458.25 194.718Z" fill="#210B04"/>
<path d="M469.771 184.771C469.869 184.771 519.298 169.11 519.298 169.11C519.495 169.012 519.692 168.815 519.593 168.519C519.495 168.322 519.298 168.125 519.002 168.224L469.672 183.786C469.475 183.884 469.278 184.081 469.377 184.377C469.377 184.574 469.574 184.771 469.771 184.771Z" fill="#210B04"/>
<path d="M559.767 113.069C558.093 119.372 561.736 125.873 568.038 127.547C574.339 129.221 580.838 125.577 582.512 119.274C584.186 112.97 580.542 106.47 574.241 104.795C567.939 103.121 561.44 106.864 559.767 113.069Z" fill="#F3A984"/>
<path d="M530.03 87.0668C530.523 87.1653 531.015 87.2638 531.409 87.3623C557.502 93.5673 583.693 99.8707 609.786 106.076C609.884 105.288 609.884 104.5 609.884 103.613C609.884 100.462 609.294 96.719 607.127 93.3703C602.401 86.0819 594.229 86.9683 589.305 81.1573C587.632 79.1875 586.155 76.2327 585.859 71.7021C585.662 67.9594 586.056 63.2318 587.828 57.0268C589.01 52.3977 590.192 47.8671 591.275 43.3364C588.025 45.7987 583.102 48.7535 576.505 50.5263C573.65 51.2158 571.09 51.6097 568.825 51.8067C568.037 56.1404 567.151 59.5876 565.97 62.5423C565.379 64.2167 564.69 65.5956 563.902 66.7775C561.736 70.7172 559.176 72.687 556.911 73.6719C556.812 73.7704 556.714 73.8689 556.615 73.8689C556.025 74.0659 555.532 74.2629 554.942 74.4598C554.548 74.7553 554.055 75.0508 553.662 75.2478C547.064 78.695 542.929 77.8086 537.514 80.6648C535.249 81.7482 532.59 83.7181 530.03 87.0668Z" fill="#F3A984"/>
<path d="M565.97 62.3452C566.462 62.5422 566.856 62.7392 567.348 62.8377C572.173 64.1181 576.998 61.7543 578.179 57.4207C578.868 54.9584 578.179 52.3976 576.505 50.4277C573.65 51.2157 571.09 51.5111 568.825 51.7081C568.037 56.0418 567.053 59.489 565.97 62.3452Z" fill="#210B04"/>
<path d="M557.601 48.9504C557.798 49.5414 560.653 57.4207 564.69 59.489C566.068 60.1785 567.644 60.474 567.644 60.474C568.629 60.6709 569.712 60.7694 570.696 60.6709C571.878 60.6709 581.33 59.489 588.912 53.1856C598.365 45.4047 607.62 27.1837 599.448 14.4783C594.426 6.6974 585.072 4.53058 581.33 3.93963C580.838 3.84114 580.346 3.84114 579.952 3.84114C579.952 3.84114 577.884 3.74265 576.013 3.84114C569.121 4.3336 565.084 7.68232 565.084 7.68232C561.539 10.5386 559.964 14.9707 559.176 18.7134C559.078 19.1074 559.078 19.5013 558.979 19.8953C558.881 20.2893 558.881 20.6832 558.881 21.0772C558.782 21.4712 558.782 21.8651 558.782 22.1606C558.684 22.9486 558.684 23.638 558.585 24.2289C558.487 26.1003 558.487 27.2822 557.994 30.04C557.305 34.7676 556.321 35.851 555.927 38.8057C555.336 42.3515 556.321 45.2077 557.601 48.9504Z" fill="#F3A984"/>
<path d="M603.484 38.6087C602.893 42.1544 600.333 44.8137 597.675 44.3212C595.016 43.9273 593.342 40.677 593.933 37.0328C594.524 33.4871 597.084 30.8279 599.742 31.3203C602.302 31.8128 603.976 35.063 603.484 38.6087Z" fill="#F3A984"/>
<path d="M598.167 44.9122C599.742 44.9122 601.318 44.0258 602.401 42.4499C602.598 42.2529 602.499 41.9574 602.303 41.7604C602.106 41.5635 601.81 41.662 601.613 41.8589C600.53 43.3363 599.053 44.1243 597.675 43.9273C596.985 43.8288 596.395 43.5333 595.902 43.0408C595.705 42.8439 595.41 42.8439 595.213 43.0408C595.016 43.2378 595.016 43.5333 595.213 43.7303C595.902 44.3212 596.69 44.7152 597.478 44.9122C597.773 44.9122 597.97 44.9122 598.167 44.9122Z" fill="#210B04"/>
<path d="M602.5 41.8588C602.697 41.8588 602.795 41.7603 602.894 41.6618C603.287 40.9723 603.583 40.1844 603.78 39.298C603.878 39.0025 603.681 38.8055 603.386 38.707C603.09 38.707 602.894 38.8055 602.795 39.101C602.598 39.8889 602.401 40.5784 602.007 41.1693C601.909 41.3663 602.007 41.6618 602.204 41.7603C602.401 41.8588 602.401 41.8588 602.5 41.8588Z" fill="#210B04"/>
<path d="M603.484 38.4116C603.681 38.4116 603.976 38.2147 603.976 38.0177C604.272 34.3735 602.401 31.4187 599.742 30.9263C599.151 30.8278 598.462 30.8278 597.871 31.0248C597.674 31.1233 597.478 31.3202 597.576 31.6157C597.674 31.8127 597.871 32.0097 598.167 31.9112C598.659 31.8127 599.151 31.7142 599.644 31.8127C601.908 32.2067 603.385 34.7674 603.09 37.9192C602.991 38.1162 603.188 38.4116 603.484 38.4116Z" fill="#210B04"/>
<path d="M597.182 41.268C597.379 41.268 597.478 41.1695 597.576 41.071L600.924 35.457C601.022 35.26 601.022 34.9645 600.727 34.866C600.53 34.7675 600.235 34.7675 600.136 35.063L596.788 40.6771C596.69 40.874 596.69 41.1695 596.985 41.268C596.985 41.268 597.084 41.268 597.182 41.268Z" fill="#210B04"/>
<path d="M598.856 38.0177C599.25 37.9192 599.348 37.6237 599.25 37.3282L598.364 35.2599C598.265 35.0629 597.97 34.8659 597.773 34.9644C597.576 35.0629 597.379 35.3584 597.477 35.5554L598.364 37.6237C598.56 37.9192 598.757 38.0177 598.856 38.0177Z" fill="#210B04"/>
<path d="M577.588 32.4037C577.49 33.6841 578.573 34.866 580.05 35.063C581.527 35.26 582.905 34.3736 583.004 33.0932C583.102 31.8128 582.019 30.6309 580.542 30.4339C579.065 30.2369 577.785 31.1233 577.588 32.4037Z" fill="#210B04"/>
<path d="M587.435 32.8961C583.201 29.9414 581.035 29.8429 579.853 30.5323C578.672 31.2218 578.278 32.6991 577.786 32.5021C577.293 32.3052 577.096 30.5323 577.983 29.3504C578.573 28.5625 579.558 28.3655 579.853 28.267C583.103 27.5776 587.14 32.5021 587.435 32.8961Z" fill="#EF4D4D"/>
<path d="M587.533 33.5856C587.632 33.5856 587.829 33.4871 587.927 33.3886C588.124 33.1916 588.025 32.8962 587.829 32.6992C584.185 30.0399 580.444 29.252 578.475 30.7293C578.179 30.9263 577.982 31.1233 577.785 31.4188L576.801 30.0399C576.604 29.8429 576.308 29.8429 576.111 29.9414C575.914 30.1384 575.914 30.4339 576.013 30.6308L577.391 32.5022C577.49 32.6007 577.588 32.6992 577.785 32.6992C577.982 32.6992 578.081 32.6007 578.179 32.4037C578.376 32.0097 578.671 31.6158 578.967 31.4188C580.641 30.1384 583.989 30.9263 587.238 33.3886C587.336 33.5856 587.435 33.5856 587.533 33.5856Z" fill="#210B04"/>
<path d="M557.305 28.4639C556.812 29.6458 557.6 31.1232 558.978 31.7142C560.357 32.3051 561.932 31.8127 562.425 30.6308C562.917 29.4489 562.129 27.9715 560.751 27.3805C559.372 26.7896 557.797 27.282 557.305 28.4639Z" fill="#210B04"/>
<path d="M566.659 31.2218C563.409 27.2821 561.342 26.5926 559.963 26.8881C558.683 27.1836 557.797 28.5625 557.403 28.1685C556.911 27.873 557.304 26.0017 558.388 25.2138C559.274 24.6228 560.258 24.6228 560.554 24.6228C564 24.9183 566.462 30.6308 566.659 31.2218Z" fill="#EF4D4D"/>
<path d="M566.659 31.9112C566.757 31.9112 566.856 31.9112 566.954 31.8127C567.151 31.6157 567.151 31.3203 567.053 31.1233C564.296 27.5776 560.948 25.8047 558.585 26.6911C558.289 26.7896 557.994 26.9866 557.698 27.1836L557.108 25.6077C557.009 25.4107 556.714 25.3123 556.517 25.3123C556.32 25.4107 556.123 25.7062 556.222 25.9032L557.108 28.07C557.206 28.1685 557.305 28.3655 557.502 28.3655C557.698 28.3655 557.797 28.3655 557.895 28.267C558.191 27.9715 558.585 27.6761 558.978 27.5776C560.948 26.7896 563.902 28.464 566.363 31.7142C566.363 31.8127 566.56 31.9112 566.659 31.9112Z" fill="#210B04"/>
<path d="M568.726 39.9877C568.135 39.4952 567.446 39.2983 566.757 39.1998C566.068 39.1013 565.379 39.1013 564.591 39.3968C565.182 39.8892 565.871 40.0862 566.56 40.1847C567.249 40.1847 567.939 40.1847 568.726 39.9877Z" fill="#210B04"/>
<path d="M569.12 47.8671C570.597 47.8671 572.074 47.6701 573.453 47.2761C573.65 47.1776 573.847 46.9806 573.748 46.6852C573.65 46.3897 573.453 46.2912 573.157 46.3897C571.385 46.9806 569.416 47.0791 567.447 46.8821C565.28 46.6852 563.213 45.8972 561.342 44.7153C561.145 44.6168 560.85 44.6168 560.653 44.8138C560.554 45.0108 560.554 45.3063 560.751 45.5033C562.72 46.7837 564.985 47.5716 567.25 47.8671C568.037 47.7686 568.53 47.8671 569.12 47.8671Z" fill="#210B04"/>
<path d="M561.933 45.4046C561.933 46.291 564.394 47.1774 566.462 47.5714C569.12 47.9654 571.877 47.5714 571.877 47.0789C571.877 46.9804 571.582 46.882 570.991 46.5865C569.12 45.6016 569.022 43.6317 567.939 43.6317C567.742 43.6317 567.151 43.6317 566.659 43.5332C566.462 43.4347 566.167 43.4347 566.167 43.4347C565.28 43.1393 565.28 43.0408 564.985 43.0408C564.296 43.1393 563.114 44.3212 563.114 44.3212C562.228 45.2076 561.933 45.1091 561.933 45.4046Z" fill="#EF4D4D"/>
<path d="M567.643 51.2156C568.234 51.2156 568.923 51.1171 569.514 51.0186C569.809 50.9201 569.908 50.7231 569.908 50.4277C569.809 50.1322 569.612 49.9352 569.317 50.0337C568.234 50.2307 567.052 50.2307 566.068 50.0337C565.575 49.9352 565.083 49.8367 564.689 49.6397C564.492 49.5412 564.197 49.6397 564.098 49.9352C564 50.1322 564.098 50.4277 564.394 50.5261C564.886 50.7231 565.378 50.8216 565.969 51.0186C566.462 51.1171 567.052 51.2156 567.643 51.2156Z" fill="#210B04"/>
<path d="M569.809 81.1573C568.825 82.1422 567.545 82.3392 566.56 81.7482C565.181 80.9603 565.083 78.9904 565.083 78.7935L569.809 81.1573Z" fill="#210B04"/>
<path d="M562.819 82.9301C562.425 83.0286 561.835 83.2256 561.145 83.4226C558.881 83.8166 557.207 83.2256 556.025 82.7332C551.791 80.9603 548.05 78.9905 546.77 78.301C549.822 79.2859 552.874 80.2709 555.927 81.3543L562.819 82.9301Z" fill="#210B04"/>
<path d="M568.825 84.5059C569.219 84.8998 569.908 85.3923 570.696 85.8847C573.551 87.6576 576.21 88.2485 578.081 88.544C584.776 89.7259 591.176 90.5139 593.343 90.7108C588.616 89.6274 583.792 88.4455 579.065 87.3621L568.825 84.5059Z" fill="#210B04"/>
<path d="M558.781 20.7818C559.274 20.8803 559.766 20.9788 560.357 21.1757C562.818 21.9637 564.788 22.8501 566.363 23.638C566.461 23.2441 566.461 22.8501 566.461 22.3576C566.56 21.2742 566.166 20.3878 565.871 19.8953C563.901 19.3044 562.227 18.9104 560.947 18.7134C560.258 18.615 559.667 18.5165 559.175 18.418C559.077 18.8119 559.077 19.2059 558.978 19.5999C558.88 19.9938 558.781 20.3878 558.781 20.7818Z" fill="#210B04"/>
<path d="M589.896 27.2822C588.222 26.4942 585.859 25.5093 582.806 24.9184C580.246 24.4259 577.981 24.3274 576.308 24.3274C576.406 24.0319 576.505 23.638 576.701 23.244C577.194 22.2591 577.883 21.6681 578.375 21.2742C580.443 21.6681 582.117 22.1606 583.299 22.5546C586.252 23.441 587.04 23.9335 587.434 24.3274C588.911 25.2138 589.6 26.3957 589.896 27.2822Z" fill="#210B04"/>
<path d="M577.391 20.8801C577.096 21.1756 576.8 21.5696 576.505 22.1605C576.013 23.1454 575.717 24.1304 575.914 24.2288C576.013 24.2288 576.603 23.1454 576.8 22.7515C577.096 22.259 577.293 21.7666 577.785 21.2741C577.883 21.1756 577.982 21.0771 578.08 20.9786L577.391 20.8801Z" fill="#210B04"/>
<path d="M566.885 24.7298L550.166 21.4685L547.019 37.6124L563.738 40.8736L566.885 24.7298Z" fill="#F9D4D3"/>
<path d="M589.339 29.0767L572.62 25.8154L569.473 41.9593L586.192 45.2206L589.339 29.0767Z" fill="#F9D4D3"/>
<path d="M572.988 32.1272L561.294 29.8462L560.597 33.423L572.29 35.704L572.988 32.1272Z" fill="#F9D4D3"/>
<path d="M564.805 26.1346L551.662 23.5708L549.193 36.2345L562.337 38.7983L564.805 26.1346Z" fill="#5D7AA6"/>
<path d="M587.163 30.4627L574.02 27.8989L571.551 40.5627L584.694 43.1265L587.163 30.4627Z" fill="#D64759"/>
<path d="M518.608 163.004C522.744 167.436 528.553 172.558 536.233 176.99C556.812 188.809 577.49 187.43 586.253 186.346C595.607 160.64 604.961 134.737 614.315 109.03C614.315 106.076 613.823 102.037 611.854 97.6053C610.967 95.6354 607.324 87.6576 599.644 84.8998C596.69 83.9149 596.001 84.6043 593.638 83.5209C589.108 81.2556 587.041 76.0355 585.958 71.7019C584.185 72.2929 576.013 74.7551 568.628 70.4215C566.56 69.2396 565.083 67.9592 564 66.5803C562.031 68.8456 559.077 71.8004 554.941 74.2627C554.548 74.5582 554.055 74.8536 553.661 75.0506C547.064 78.4978 542.929 77.6114 537.513 80.4677C535.249 81.7481 532.59 83.6194 530.03 87.0666C528.553 88.8395 527.175 91.1048 525.895 93.8626C525.796 106.47 524.91 120.357 523.138 135.328C521.858 145.078 520.381 154.337 518.608 163.004Z" fill="#5D7AA6"/>
<path d="M526.387 249.086H660.79C665.024 208.212 669.258 167.239 673.491 126.365C624.457 126.168 575.422 125.873 526.387 125.676V249.086Z" fill="#A03348"/>
<path d="M544.8 249.086H679.203C683.437 208.212 687.671 167.239 691.905 126.365C642.87 126.168 593.835 125.873 544.8 125.676V249.086Z" fill="#D64759"/>
<path d="M527.568 126.267H676.15C676.544 126.267 676.839 125.971 676.839 125.577C676.839 125.183 676.544 124.888 676.15 124.888H527.568C527.174 124.888 526.879 125.183 526.879 125.577C526.879 125.971 527.174 126.267 527.568 126.267Z" fill="#A03348"/>
<path d="M587.927 90.3171C595.213 97.2115 602.5 104.106 609.687 111C610.967 112.182 612.247 113.463 613.528 114.645C620.223 121.047 626.919 127.448 633.713 133.85C636.47 128.926 639.325 123.804 642.18 118.781C637.454 111.985 631.645 104.697 624.851 97.31C621.7 93.8628 618.254 90.4156 614.611 87.0668C609.884 82.6347 605.158 78.695 600.629 75.1493C595.804 75.0508 591.275 77.5131 589.109 81.4528C586.942 85.3925 587.632 89.2337 587.927 90.3171Z" fill="#F3A984"/>
<path d="M609.688 111C610.968 112.182 612.248 113.463 613.528 114.644C617.269 108.932 621.011 103.219 624.752 97.5068C619.928 101.742 615.103 105.879 610.18 110.114C610.081 110.409 609.884 110.803 609.688 111Z" fill="#210B04"/>
<path d="M619.239 136.313C620.42 136.904 628.79 140.942 637.947 136.904C645.332 133.653 648.384 127.153 649.073 125.577C642.378 114.447 633.418 101.841 621.208 89.2335C616.186 84.0135 611.165 79.4829 606.34 75.4447C603.78 74.2628 599.645 72.6869 594.328 72.4899C590.684 72.293 585.761 72.096 584.186 74.7553C583.004 76.7251 585.17 77.907 585.466 84.7029C585.564 86.2788 585.564 88.0516 586.45 90.317C587.041 91.6958 587.73 92.7793 588.223 93.4687C588.321 94.1581 588.518 94.7491 588.617 95.4385C591.374 105.977 598.463 121.342 619.239 136.313Z" fill="#5D7AA6"/>
<path d="M549.822 89.3321C541.058 94.2567 532.393 99.1813 523.63 104.007C522.153 104.795 520.578 105.682 519.002 106.568C510.928 111.099 502.854 115.728 494.78 120.259C493.303 114.743 491.728 109.228 490.251 103.613C496.454 98.1964 503.839 92.5824 512.307 87.0668C516.245 84.5061 520.381 82.0438 524.812 79.5815C530.523 76.4297 536.037 73.7704 541.255 71.5051C545.981 72.5885 549.723 76.0358 550.905 80.3694C551.988 84.8015 550.314 88.3472 549.822 89.3321Z" fill="#F3A984"/>
<path d="M523.63 104.106C522.153 104.894 520.578 105.78 519.002 106.667C516.737 100.166 514.571 93.7641 512.307 87.2637C515.95 92.4837 519.593 97.7038 523.335 103.022C523.335 103.416 523.433 103.81 523.63 104.106Z" fill="#210B04"/>
<path d="M508.172 126.267C506.892 126.562 497.734 128.433 489.857 122.228C483.457 117.205 482.177 110.212 481.882 108.538C491.039 99.3783 502.953 89.3321 517.821 80.1724C523.926 76.4297 529.932 73.1794 535.545 70.4217C538.302 69.9292 542.732 69.4368 547.951 70.4217C551.496 71.1111 556.32 72.1945 557.207 75.0508C557.896 77.2176 555.533 77.8086 553.465 84.4075C552.973 85.8849 552.579 87.6577 551.2 89.6276C550.314 90.8095 549.329 91.6959 548.64 92.1884C548.345 92.7793 548.049 93.3703 547.754 93.9612C542.634 103.712 532 116.91 508.172 126.267Z" fill="#5D7AA6"/>
<path d="M562.917 118.289C562.819 120.455 562.622 122.622 562.523 124.888C576.998 130.108 596.395 134.934 619.337 135.032C626.328 135.032 632.925 134.638 638.931 133.949C637.356 128.433 635.78 122.918 634.205 117.402C629.085 116.122 624.949 115.629 622.586 115.432C602.5 113.659 592.653 121.342 572.173 119.667C567.939 119.273 564.591 118.683 562.917 118.289Z" fill="#F3A984"/>
<path d="M420.243 114.644C413.154 116.319 406.065 118.092 398.975 119.766C397.597 121.539 396.218 123.312 394.741 124.986C399.96 138.086 402.224 140.449 403.209 140.252C403.898 140.055 403.997 138.873 404.981 134.54C405.868 130.6 406.655 127.547 407.148 125.577C409.117 125.577 411.086 125.479 413.055 125.479C412.071 133.161 412.169 137.199 413.154 137.495C413.745 137.593 414.434 136.51 415.32 135.229C416.994 132.767 419.554 129.517 423 125.774C439.444 128.138 458.053 129.615 478.435 129.123C485.229 128.926 491.728 128.532 498.03 128.039C496.454 122.524 494.879 117.008 493.303 111.493C488.183 110.212 484.048 109.72 481.685 109.523C465.734 108.144 456.576 111.197 431.271 113.758C426.545 114.152 422.606 114.447 420.243 114.644Z" fill="#F3A984"/>
<path d="M577.293 136.116C595.41 136.904 613.429 137.79 631.546 138.578C632.531 138.48 640.605 137.987 643.066 133.062C645.725 127.744 641.491 117.599 629.971 112.576C610.672 113.857 591.373 115.235 571.976 116.516C573.748 123.115 575.52 129.615 577.293 136.116Z" fill="#5D7AA6"/>
<path d="M427.628 129.024C446.041 135.623 485.722 147.245 505.021 128.63C505.71 127.941 506.301 127.251 506.99 126.562C502.165 117.304 497.242 108.144 492.417 98.8857C470.657 103.712 448.896 108.439 427.234 113.266C427.234 118.486 427.431 123.706 427.628 129.024Z" fill="#5D7AA6"/>
<path d="M573.255 2.85619C568.529 10.3416 587.336 35.7525 598.068 33.0932C602.795 31.9113 606.241 25.1153 606.142 19.4028C606.044 11.9174 600.136 7.28832 598.068 5.71245C589.699 -0.689519 576.308 -1.87142 573.255 2.85619Z" fill="#210B04"/>
<path d="M559.471 16.9406C561.047 19.1074 566.954 17.1376 570.401 15.9557C574.339 14.6753 580.838 12.5085 581.035 8.96277C581.232 5.61405 575.422 1.57588 570.401 1.96985C562.524 2.65929 557.305 13.9859 559.471 16.9406Z" fill="#210B04"/>
<path d="M614.906 116.417C615.201 116.417 615.398 116.22 615.398 115.925C615.398 115.629 615.201 115.432 614.906 115.432L573.157 114.546C572.862 114.546 572.665 114.743 572.665 115.038C572.665 115.334 572.862 115.531 573.157 115.531L614.906 116.417Z" fill="#210B04"/>
<path d="M622.094 119.175C622.291 119.175 622.488 119.077 622.488 118.88C622.586 118.683 622.389 118.387 622.192 118.289L619.337 117.304C619.14 117.205 618.844 117.304 618.746 117.599C618.647 117.796 618.844 118.092 619.041 118.19L621.897 119.175C621.995 119.175 622.094 119.175 622.094 119.175Z" fill="#210B04"/>
<path d="M618.353 116.614H619.534C619.83 116.614 620.027 116.417 620.027 116.122C620.027 115.826 619.83 115.629 619.534 115.629H618.353C618.057 115.629 617.86 115.826 617.86 116.122C617.959 116.417 618.156 116.614 618.353 116.614Z" fill="#210B04"/>
<path d="M602.598 112.281C603.09 112.084 603.09 111.788 602.992 111.591L591.767 91.3018C591.668 91.1048 591.373 91.0063 591.176 91.1048C590.979 91.2033 590.881 91.4988 590.979 91.6958L602.204 112.084C602.302 112.281 602.401 112.281 602.598 112.281Z" fill="#210B04"/>
<path d="M526.387 118.781C526.584 118.781 526.781 118.584 526.88 118.387L529.538 96.128C529.538 95.8325 529.341 95.6355 529.144 95.6355C528.849 95.6355 528.652 95.8325 528.652 96.0295L525.993 118.289C525.895 118.486 526.092 118.683 526.387 118.781C526.387 118.781 526.289 118.781 526.387 118.781Z" fill="#210B04"/>
<path d="M506.891 126.956C507.285 126.857 507.383 126.562 507.285 126.365L506.399 123.607C506.3 123.41 506.103 123.213 505.808 123.312C505.611 123.41 505.414 123.607 505.513 123.903L506.399 126.66C506.596 126.857 506.694 126.956 506.891 126.956Z" fill="#210B04"/>
<path d="M495.371 105.091C495.47 105.091 495.667 104.992 495.765 104.894C495.962 104.697 495.863 104.401 495.667 104.204L490.448 100.363C490.251 100.166 489.956 100.265 489.759 100.462C489.562 100.659 489.66 100.954 489.857 101.151L495.076 104.992C495.174 105.091 495.273 105.091 495.371 105.091Z" fill="#210B04"/>
<path d="M581.921 78.6949C582.118 78.5964 588.518 75.0507 588.518 75.0507C588.715 74.9522 588.813 74.6567 588.715 74.4597C588.616 74.2628 588.321 74.1643 588.124 74.2628L581.822 77.8085C581.626 77.907 581.527 78.2024 581.626 78.3994C581.527 78.5964 581.724 78.6949 581.921 78.6949Z" fill="#210B04"/>
<path d="M557.994 78.695C558.388 78.5965 558.486 78.3995 558.486 78.104L557.206 73.5734C557.108 73.2779 556.911 73.1794 556.616 73.2779C556.32 73.3764 556.222 73.5734 556.32 73.8689L557.6 78.3995C557.6 78.5965 557.699 78.695 557.994 78.695Z" fill="#210B04"/>
<path d="M565.97 118.88C560.948 117.304 556.025 115.629 551.003 114.053C547.065 115.235 543.225 116.516 539.286 117.698C534.757 127.842 532.689 135.919 534.757 137.199C537.612 138.972 548.05 126.66 548.936 125.577C556.616 126.266 564.198 127.054 571.878 127.744L565.97 118.88Z" fill="#F3A984"/>
<path d="M441.117 317.735C441.314 317.735 441.511 317.636 441.511 317.439L444.17 310.939C444.268 310.742 444.169 310.446 443.874 310.348C443.677 310.249 443.382 310.348 443.283 310.643L440.625 317.144C440.526 317.341 440.625 317.636 440.92 317.735C440.92 317.735 441.019 317.735 441.117 317.735Z" fill="#210B04"/>
</g>
<defs>
<clipPath id="clip0_107_1875">
<rect width="705" height="320" fill="white"/>
</clipPath>
</defs>
</svg>
