<svg width="502" height="320" viewBox="0 0 502 320" fill="none" xmlns="http://www.w3.org/2000/svg">
<path d="M400.798 115.406L459.35 181.376C441.426 199.768 421.908 218.559 400.399 237.751C376.899 258.941 354.195 278.133 331.889 295.325C312.372 273.335 292.854 251.345 273.337 229.355C295.643 211.363 318.346 192.171 341.449 170.981C362.559 152.189 382.475 133.797 400.798 115.406Z" fill="#FFB000"/>
<path d="M330.694 214.561L320.736 203.366L317.549 206.165L315.558 203.766L324.321 195.77L326.312 198.168L323.126 200.967L333.083 212.162L330.694 214.561Z" fill="#E29700"/>
<path d="M337.465 208.164L325.515 194.57L327.905 192.571L339.854 206.165L337.465 208.164Z" fill="#E29700"/>
<path d="M344.635 192.971L347.423 191.771C348.618 193.771 349.016 195.37 348.618 196.569C348.618 198.169 347.821 199.368 346.626 200.168C345.033 201.367 343.44 201.767 341.448 201.767C339.457 201.367 337.067 200.168 335.075 197.769C333.084 195.37 331.889 193.371 331.889 190.972C331.889 188.973 332.685 187.373 333.88 186.174C335.075 184.975 336.668 184.575 338.262 184.575C339.457 184.575 340.652 184.975 341.847 186.174L340.253 188.973C339.457 188.173 338.66 188.173 337.863 188.173C337.067 188.173 336.27 188.573 335.872 188.973C335.075 189.772 334.677 190.572 334.677 191.771C334.677 192.971 335.473 194.17 337.067 196.17C338.66 197.769 339.855 198.968 341.05 198.968C342.245 199.368 343.041 198.968 343.838 198.169C344.236 197.769 344.635 196.969 344.635 196.17C345.83 194.97 345.431 194.17 344.635 192.971Z" fill="#E29700"/>
<path d="M353.398 194.17L341.448 180.576L343.838 178.577L349.016 184.575L348.22 174.579L351.406 171.78L351.804 180.976L363.754 185.374L360.966 187.773L352.203 184.175L352.601 188.173L356.186 192.171L353.398 194.17Z" fill="#E29700"/>
<path d="M364.551 184.175L352.602 170.581L360.966 163.384L362.958 165.783L356.983 170.981L359.771 174.179L365.348 169.381L367.339 171.78L361.763 176.578L364.949 180.177L371.322 174.579L373.314 176.978L364.551 184.175Z" fill="#E29700"/>
<path d="M377.298 172.98L367.34 161.785L364.153 164.584L362.162 162.185L370.925 154.188L372.916 156.587L369.73 159.386L379.687 170.581L377.298 172.98Z" fill="#E29700"/>
<path d="M315.559 248.946C315.957 247.746 316.754 246.547 317.152 245.747C317.949 244.548 317.949 244.948 318.745 244.148C319.542 243.748 320.339 243.348 321.135 242.549C321.932 241.749 322.729 241.749 323.924 241.349C325.915 240.949 327.907 239.75 329.5 238.551C331.093 237.351 331.89 235.352 333.483 233.753C335.076 232.553 337.068 231.754 338.661 230.154C340.254 228.955 341.848 227.356 343.043 225.756C345.831 222.558 348.221 219.359 352.204 217.36C353.797 216.56 352.204 213.762 350.611 214.961C347.026 216.96 344.238 220.159 341.449 223.357C340.254 224.957 338.661 226.556 337.068 227.755C335.475 229.355 333.483 230.154 331.492 231.354C329.898 232.953 328.703 234.952 327.11 236.152C326.313 236.951 324.72 237.751 323.924 238.151C322.729 238.551 321.932 238.151 320.737 238.95C319.94 239.35 319.144 239.75 318.347 240.55C317.551 240.949 316.754 241.349 315.957 241.749C313.966 242.549 313.169 245.747 311.974 247.347C311.974 249.346 314.762 250.945 315.559 248.946Z" fill="#E29700"/>
<path d="M317.55 257.742C319.143 257.342 319.939 256.143 320.736 254.543C321.533 252.544 323.923 251.745 325.118 250.145C328.304 246.947 331.889 244.548 335.474 242.149C339.059 239.35 341.05 235.752 344.635 232.953C347.821 230.554 351.406 228.555 354.195 225.356C355.389 224.157 353.398 221.758 352.203 223.357C349.415 226.156 345.83 228.155 342.643 230.554C339.457 232.953 337.465 236.551 334.279 238.95C331.092 241.749 327.507 243.348 324.321 246.547C323.524 247.347 322.728 248.146 321.931 248.946C321.134 249.745 320.338 250.145 319.541 250.945C318.745 251.345 318.346 252.144 317.948 252.944C317.55 253.744 317.151 254.943 316.355 255.343C315.16 255.343 315.956 258.142 317.55 257.742Z" fill="#E29700"/>
<path d="M401.993 203.766C402.391 202.966 402.391 202.167 402.789 201.367C402.789 200.967 402.789 200.567 403.188 200.567V200.168C403.586 199.768 403.188 199.768 402.391 199.368C402.789 200.567 404.383 200.967 405.179 199.768C405.578 199.368 405.976 198.169 406.374 197.769C405.976 197.769 405.976 197.769 406.374 197.769H406.772C407.171 197.769 407.569 197.769 407.967 197.769C409.162 197.769 410.357 196.569 411.154 195.77C413.146 193.771 413.942 191.372 415.535 189.372C418.722 185.374 424.298 183.775 427.485 179.777C428.68 178.177 426.688 176.178 425.493 177.778C422.307 181.776 416.73 183.375 413.544 187.373C411.951 189.372 410.756 191.771 408.764 193.771C408.366 194.17 407.569 194.97 407.171 194.97C406.374 194.97 405.976 194.57 405.179 194.97C403.984 195.37 403.188 196.969 402.789 198.169C403.586 198.169 404.781 198.568 405.578 198.568C405.179 196.969 403.188 196.169 401.993 197.369C400.399 198.568 400.001 200.967 399.603 202.966C398.806 204.566 401.594 205.365 401.993 203.766Z" fill="#E29700"/>
<path d="M403.187 208.164C403.187 208.564 403.585 208.964 403.585 208.964C403.983 209.763 405.178 209.763 405.975 209.364C407.17 208.564 407.568 207.364 408.365 206.165C409.161 204.966 410.755 204.966 411.551 203.766C412.746 202.567 413.145 201.367 414.34 200.168C415.535 198.968 416.729 198.169 417.924 197.369C420.314 195.37 423.103 193.771 425.492 191.771C427.882 189.372 429.874 186.974 431.467 184.175C432.264 182.576 429.874 180.976 429.077 182.576C427.484 185.374 425.492 187.773 423.103 190.172C420.713 192.171 418.323 193.771 415.933 195.77C414.738 196.569 413.543 197.369 412.746 198.568C411.551 199.768 411.153 200.967 409.958 201.767C409.56 202.167 408.763 202.567 407.967 202.966C407.568 203.366 407.17 203.766 406.772 204.166C405.975 205.365 405.178 206.565 404.382 207.364C405.178 207.364 405.975 207.764 406.772 207.764C406.772 207.364 406.373 206.965 406.373 206.965C405.178 204.966 402.39 206.165 403.187 208.164Z" fill="#E29700"/>
<path d="M399.204 161.785C400 162.584 400.398 162.984 401.195 163.784C401.593 164.184 401.992 164.184 402.39 164.184C402.788 164.184 402.788 164.184 402.788 164.184C402.788 164.184 403.187 164.184 403.187 163.784C403.585 163.384 403.585 162.984 403.585 162.584C403.585 162.184 403.585 161.785 403.187 161.385C402.39 160.585 401.992 160.185 401.195 159.386C400.797 158.986 400.398 158.986 400 158.986C399.602 158.986 399.602 158.986 399.602 158.986C399.602 158.986 399.204 158.986 399.204 159.386C398.805 159.785 398.805 160.185 398.805 160.585C398.805 160.985 398.805 161.385 399.204 161.785Z" fill="#E29700"/>
<path d="M405.975 168.182C407.17 168.982 407.967 170.181 409.161 170.981C409.56 171.381 409.958 171.381 410.356 171.381C410.755 171.381 411.153 171.381 411.551 170.981C411.95 170.581 411.95 170.181 411.95 169.781C411.95 169.382 411.95 168.982 411.551 168.582C410.755 167.782 409.56 166.583 408.365 165.783C407.967 165.383 407.568 165.383 407.17 165.383C406.772 165.383 406.373 165.383 405.975 165.783C405.577 166.183 405.577 166.583 405.577 166.983C405.577 167.382 405.577 167.782 405.975 168.182Z" fill="#E29700"/>
<path d="M353.399 207.364C363.755 217.76 373.713 228.555 382.874 240.15C384.069 241.749 386.061 239.35 384.866 238.15C375.705 226.556 366.145 215.76 355.391 205.365C354.196 203.766 352.204 206.165 353.399 207.364Z" fill="#E29700"/>
<path d="M439.836 186.973L464.133 251.744C445.811 260.141 425.895 268.537 405.183 276.134C382.081 284.93 359.775 292.526 338.664 298.923C330.698 277.333 322.333 255.743 314.367 234.152C335.876 227.355 357.783 219.359 380.886 210.963C401.2 203.366 420.717 195.37 439.836 186.973Z" fill="#163144"/>
<path d="M360.572 239.75L356.589 228.555L353.402 229.754L352.605 227.356L361.368 224.157L362.165 226.556L358.978 227.755L362.962 238.95L360.572 239.75Z" fill="#3E588F"/>
<path d="M367.344 236.952L362.166 223.757L364.555 222.958L369.734 236.152L367.344 236.952Z" fill="#3E588F"/>
<path d="M376.903 227.756H379.293C379.691 229.355 379.293 230.554 378.894 231.754C378.496 232.553 377.699 233.353 376.505 233.753C374.911 234.153 373.716 234.153 372.521 233.353C370.928 232.553 369.733 230.954 368.937 228.955C368.14 226.556 367.742 224.557 368.538 222.958C368.937 221.358 370.132 220.559 371.326 219.759C372.521 219.359 373.716 219.359 374.911 219.759C375.708 220.159 376.505 220.959 377.301 221.758L375.31 223.357C374.911 222.558 374.513 222.158 373.716 222.158C373.318 221.758 372.521 221.758 372.123 222.158C371.326 222.558 370.928 222.958 370.53 224.157C370.131 224.957 370.53 226.156 370.928 227.756C371.725 229.355 372.123 230.554 372.92 230.954C373.716 231.354 374.513 231.754 375.31 231.354C375.708 230.954 376.505 230.554 376.505 230.154C376.903 229.755 376.903 228.955 376.903 227.756Z" fill="#3E588F"/>
<path d="M382.479 231.354L377.301 218.16L379.691 217.36L382.081 223.358L384.47 215.761L387.259 214.562L385.267 221.358L392.835 227.756L390.047 228.955L384.869 223.757L384.072 226.556L385.665 230.554L382.479 231.354Z" fill="#3E588F"/>
<path d="M393.632 226.956L388.454 213.762L396.42 210.563L397.217 212.962L391.242 215.361L392.437 218.16L398.014 216.161L398.81 218.56L393.234 220.559L394.429 224.157L400.404 221.758L401.2 224.157L393.632 226.956Z" fill="#3E588F"/>
<path d="M406.378 222.158L402.395 210.963L399.208 212.162L398.412 209.764L407.175 206.565L407.971 208.964L404.785 210.163L408.768 221.358L406.378 222.158Z" fill="#3E588F"/>
<path d="M339.463 260.941C340.259 260.541 340.657 259.741 341.454 259.341C342.251 258.542 343.047 258.941 343.844 258.542C344.641 258.542 345.437 258.142 346.234 258.142C347.031 258.142 347.429 258.542 348.225 258.542C349.819 258.542 351.412 258.542 353.005 257.742C354.598 256.942 355.793 255.743 357.387 255.343C358.98 254.943 360.573 254.943 361.768 254.144C363.361 253.744 364.556 252.944 366.15 252.144C368.938 250.545 371.726 248.946 375.311 248.546C377.302 248.146 376.506 244.948 374.514 245.347C371.328 245.747 368.54 247.347 365.353 248.946C363.76 249.746 362.166 250.545 360.573 250.945C358.98 251.345 357.387 251.345 355.793 252.144C354.2 252.944 353.005 254.144 351.014 254.543C350.217 254.943 349.022 254.943 348.225 254.543C347.429 254.543 346.632 254.144 345.836 254.144C345.039 254.144 344.242 254.543 343.446 254.543C342.649 254.543 341.852 254.543 341.454 254.543C339.861 254.943 338.666 256.542 337.471 257.742C335.878 260.141 338.268 262.54 339.463 260.941Z" fill="#3E588F"/>
<path d="M338.666 268.137C340.259 268.137 341.056 267.337 342.251 266.538C343.446 265.738 344.641 265.338 346.234 264.939C349.42 263.339 352.607 262.939 356.192 261.74C359.378 260.94 362.167 258.541 365.353 257.742C368.54 256.942 371.726 256.142 374.913 254.943C376.904 254.143 376.108 250.945 374.116 251.744C370.929 252.944 367.743 253.744 364.556 254.543C361.37 255.343 358.98 257.342 355.793 258.541C352.607 259.341 349.819 259.741 346.632 261.34C345.039 261.74 343.844 262.54 342.251 262.939C341.852 262.939 341.056 263.339 340.658 263.739C339.861 264.139 339.463 265.338 338.666 264.939C336.276 264.939 336.276 268.137 338.666 268.137Z" fill="#3E588F"/>
<path d="M415.938 252.144C416.336 251.744 416.336 251.345 416.734 250.945C416.734 250.945 416.734 250.545 417.133 250.545C417.531 250.145 417.531 249.745 416.734 249.346C416.734 250.945 418.328 251.345 419.523 250.545C419.921 250.145 420.319 249.745 420.717 249.346C420.319 249.346 419.921 249.346 420.319 249.745C420.717 249.745 420.718 250.145 421.116 250.145C421.912 250.545 423.107 250.145 424.302 249.745C426.294 248.946 427.489 247.746 429.48 246.547C433.065 244.148 437.845 244.548 441.828 242.549C443.82 241.749 441.828 238.95 440.235 239.75C436.252 241.749 431.472 241.349 427.887 243.748C427.091 244.148 426.294 244.948 425.497 245.347C424.701 245.747 423.506 246.947 422.709 246.547C422.311 246.547 421.912 246.147 421.514 246.147C421.116 246.147 420.717 246.147 419.921 246.147C419.124 246.547 418.328 247.346 417.531 248.146C418.328 248.546 419.523 248.946 420.319 249.346C420.319 247.746 418.726 246.547 417.133 246.947C415.539 247.346 414.344 249.346 413.548 250.545C411.955 252.544 414.743 254.143 415.938 252.144Z" fill="#3E588F"/>
<path d="M414.742 255.743C414.742 256.142 414.742 256.142 414.742 256.542C414.742 257.342 415.538 258.541 416.733 258.141C417.928 257.742 418.725 256.942 419.521 256.542C420.318 255.743 421.115 256.142 422.31 255.743C423.505 255.343 424.301 254.543 425.496 253.743C426.691 253.344 427.886 252.944 429.081 252.544C431.471 251.744 433.861 251.344 436.251 250.545C438.641 249.345 441.03 248.146 443.022 246.547C444.615 245.347 442.225 242.948 440.632 244.148C438.641 245.747 436.649 246.946 434.259 247.746C431.869 248.546 429.479 248.946 427.089 249.745C425.895 250.145 425.098 250.545 423.903 250.945C422.708 251.344 421.911 252.144 421.115 252.544C420.716 252.544 419.92 252.544 419.521 252.544C419.123 252.544 418.725 252.944 418.327 252.944C417.53 253.344 416.733 254.143 415.937 254.543C416.733 254.943 417.132 255.743 417.928 256.142C417.928 255.743 417.928 255.743 417.928 255.343C417.928 253.344 414.742 253.344 414.742 255.743Z" fill="#3E588F"/>
<path d="M424.701 220.958C425.099 221.758 425.099 222.158 425.497 222.957L425.896 223.357L426.294 223.757C426.692 223.757 426.692 223.757 427.09 223.757C427.489 223.757 427.489 223.757 427.489 223.757C427.887 223.357 428.285 223.357 428.285 222.957V222.558C428.285 222.158 428.285 222.158 427.887 221.758C427.489 220.958 427.489 220.559 427.09 219.759L426.692 219.359L426.294 218.959C425.896 218.959 425.896 218.959 425.497 218.959C425.099 218.959 425.099 218.959 425.099 218.959C424.701 219.359 424.302 219.359 424.302 219.759V220.159C424.701 220.159 424.701 220.559 424.701 220.958Z" fill="#3E588F"/>
<path d="M428.284 227.355C428.682 228.155 429.081 229.355 429.479 230.154V229.754C429.479 230.154 429.479 230.154 429.877 230.554L430.276 230.954C430.674 231.354 431.072 231.354 431.471 230.954C431.869 230.954 432.267 230.554 432.267 230.154V229.754C432.267 229.355 432.267 229.355 432.267 228.955C431.869 227.755 431.471 226.556 430.674 225.756C430.674 225.356 430.276 224.957 429.877 224.957C429.479 224.957 429.081 224.957 428.682 224.957C428.284 225.356 427.886 225.356 427.886 225.756C427.886 226.556 427.886 226.956 428.284 227.355Z" fill="#3E588F"/>
<path d="M378.497 241.349C383.277 251.745 387.26 262.54 390.447 273.335C391.243 275.334 394.031 274.534 393.633 272.535C390.048 261.34 386.065 250.545 381.285 239.75C380.489 237.751 377.7 239.35 378.497 241.349Z" fill="#3E588F"/>
<path d="M40.3248 241.749C24.3923 237.751 8.06136 236.551 -7.47291 239.35L-14.6426 200.567C6.86641 196.569 29.172 198.168 49.8844 203.366L40.3248 241.749Z" fill="#163144"/>
<path d="M39.5279 232.553C24.3919 228.955 8.85763 228.155 -6.27833 230.554L-9.46484 208.964C8.45931 206.165 27.1801 207.364 44.7059 211.362L39.5279 232.553Z" fill="white"/>
<path d="M0.0961843 205.365L-4.28528 205.765L-4.68359 201.367L-0.302132 200.967L0.0961843 205.365Z" fill="white"/>
<path d="M6.06933 204.965L1.68787 205.365L1.28955 200.567H5.67101L6.06933 204.965Z" fill="white"/>
<path d="M11.6466 204.965H7.26514V200.567H11.6466V204.965Z" fill="white"/>
<path d="M17.2218 204.965C15.6285 204.965 14.4336 204.965 12.8403 204.965V200.167C14.4336 200.167 15.6285 200.167 17.2218 200.167V204.965Z" fill="white"/>
<path d="M22.7994 205.365C21.2062 205.365 20.0112 205.365 18.418 204.965L18.8163 200.567C20.4095 200.567 21.6045 200.567 23.1977 200.967L22.7994 205.365Z" fill="white"/>
<path d="M28.3751 206.165C26.7819 205.765 25.5869 205.765 23.9937 205.765L24.392 201.367C25.9852 201.367 27.1802 201.767 28.7734 201.767L28.3751 206.165Z" fill="white"/>
<path d="M33.9528 206.964C32.7578 206.564 31.1645 206.564 29.5713 206.165L30.3679 201.767C31.9612 201.767 33.1561 202.166 34.7494 202.566L33.9528 206.964Z" fill="white"/>
<path d="M39.5281 207.764C38.3331 207.364 36.7399 207.364 35.5449 206.964L36.3416 202.566C37.9348 202.966 39.1298 202.966 40.723 203.366L39.5281 207.764Z" fill="white"/>
<path d="M45.1057 208.963C43.9108 208.563 42.3175 208.164 41.1226 208.164L41.9192 203.766C43.5124 204.165 44.7074 204.565 46.3007 204.565L45.1057 208.963Z" fill="white"/>
<path d="M2.48474 236.551L-0.701782 236.951L-1.1001 232.153L2.08642 231.753L2.48474 236.551Z" fill="white"/>
<path d="M6.86657 236.151L3.68005 236.551L3.28174 231.753H6.86657V236.151Z" fill="white"/>
<path d="M11.2485 236.151H8.06201V231.753L11.2485 231.354V236.151Z" fill="white"/>
<path d="M15.6284 236.151C14.4335 236.151 13.2385 236.151 12.4419 236.151V231.354C13.6368 231.354 14.8318 231.354 16.0267 231.354L15.6284 236.151Z" fill="white"/>
<path d="M20.0103 236.551C18.8153 236.551 17.6204 236.551 16.8237 236.151L17.222 231.753C18.417 231.753 19.6119 231.753 20.8069 232.153L20.0103 236.551Z" fill="white"/>
<path d="M24.7905 236.951C23.5956 236.951 22.4006 236.551 21.604 236.551L22.0023 232.153C23.1973 232.153 24.3922 232.553 25.5871 232.553L24.7905 236.951Z" fill="white"/>
<path d="M29.1724 237.751C27.9774 237.351 26.7825 237.351 25.9858 237.351L26.7825 232.953C27.9774 232.953 29.1724 233.353 30.3673 233.353L29.1724 237.751Z" fill="white"/>
<path d="M33.5527 238.55C32.3578 238.15 31.1628 238.15 30.3662 237.751L31.1628 233.353C32.3578 233.353 33.5527 233.752 34.7477 234.152L33.5527 238.55Z" fill="white"/>
<path d="M37.9346 239.35C36.7396 238.95 35.5447 238.95 34.748 238.55L35.5447 234.152C36.7396 234.552 37.9346 234.552 39.1295 234.952L37.9346 239.35Z" fill="white"/>
<path d="M83.7403 261.34C76.1723 256.542 69.0026 252.544 61.4346 249.345C53.8667 246.147 45.9004 243.348 37.9341 241.349L47.0953 202.966C57.4515 205.365 67.4094 208.963 77.3672 213.361C86.9268 217.759 96.4863 222.957 104.851 228.155L83.7403 261.34Z" fill="#163144"/>
<path d="M85.7318 252.144C72.1891 243.748 57.8498 237.351 42.7139 233.352L48.2903 212.162C65.8161 216.56 82.147 224.157 96.8847 233.352L85.7318 252.144Z" fill="white"/>
<path d="M53.0701 211.362L49.0869 210.163L49.8835 205.765L54.265 206.964L53.0701 211.362Z" fill="white"/>
<path d="M58.2478 212.962C57.0529 212.562 55.4596 212.162 54.2646 211.762L55.4596 207.364C56.6545 207.764 58.2478 208.164 59.4427 208.563L58.2478 212.962Z" fill="white"/>
<path d="M63.8254 214.561C62.6305 214.161 61.0372 213.761 59.8423 213.361L61.4355 208.963C62.6305 209.363 64.2238 209.763 65.4187 210.562L63.8254 214.561Z" fill="white"/>
<path d="M69.0032 216.56C67.8082 216.16 66.6133 215.36 65.02 214.961L66.6133 210.562C67.8082 210.962 69.4015 211.762 70.5964 212.162L69.0032 216.56Z" fill="white"/>
<path d="M73.783 218.959C72.588 218.559 71.3931 217.759 69.7998 217.359L71.3931 212.961C72.588 213.361 74.1813 214.161 75.3762 214.561L73.783 218.959Z" fill="white"/>
<path d="M78.9607 220.958C77.7657 220.558 76.5708 219.758 74.9775 219.358L76.9691 214.96C78.1641 215.36 79.7573 216.16 80.9523 216.56L78.9607 220.958Z" fill="white"/>
<path d="M84.1381 223.756C82.9431 222.957 81.7482 222.557 80.5532 221.757L82.5448 217.759C83.7397 218.559 84.9347 218.958 86.5279 219.758L84.1381 223.756Z" fill="white"/>
<path d="M88.9178 226.156L85.333 224.156L87.3246 220.158L90.9094 222.157L88.9178 226.156Z" fill="white"/>
<path d="M93.6976 228.954L90.1128 226.955L92.1044 222.957L95.6892 224.956L93.6976 228.954Z" fill="white"/>
<path d="M98.0796 231.753L94.8931 229.754L97.2829 225.756L100.469 227.755L98.0796 231.753Z" fill="white"/>
<path d="M44.3062 240.949L41.1196 240.149L42.3146 235.751L45.5011 236.551L44.3062 240.949Z" fill="white"/>
<path d="M48.6885 242.548C47.4935 242.149 46.6969 241.749 45.502 241.349L46.6969 236.951C47.8918 237.351 49.0868 237.751 49.8834 238.15L48.6885 242.548Z" fill="white"/>
<path d="M53.0683 244.148C51.8734 243.748 51.0768 243.348 49.8818 242.948L51.4751 238.55C52.67 238.95 53.865 239.35 54.6616 239.75L53.0683 244.148Z" fill="white"/>
<path d="M57.4502 245.747C56.2552 245.347 55.4586 244.947 54.2637 244.547L55.8569 240.149C57.0519 240.549 58.2468 240.949 59.0434 241.349L57.4502 245.747Z" fill="white"/>
<path d="M61.4326 247.346C60.2377 246.946 59.441 246.547 58.2461 246.147L59.8393 241.749C61.0343 242.149 61.8309 242.548 63.0259 242.948L61.4326 247.346Z" fill="white"/>
<path d="M65.8149 249.345C64.62 248.946 63.8234 248.146 62.6284 247.746L64.62 243.348C65.8149 243.748 66.6116 244.148 67.8065 244.947L65.8149 249.345Z" fill="white"/>
<path d="M69.7993 251.345C68.6044 250.945 67.8077 250.145 66.6128 249.745L68.6044 245.747C69.7993 246.147 70.5959 246.947 71.7909 247.346L69.7993 251.345Z" fill="white"/>
<path d="M73.7809 253.344L70.9927 251.744L72.9842 247.746L76.1708 249.345L73.7809 253.344Z" fill="white"/>
<path d="M77.7652 255.743L74.9771 254.143L76.9686 250.145L80.1551 251.744L77.7652 255.743Z" fill="white"/>
<path d="M82.1455 258.141L78.959 256.542L81.3489 252.544L84.5354 254.543L82.1455 258.141Z" fill="white"/>
<path d="M133.929 289.728C112.42 281.731 96.4875 268.937 81.3516 260.141L102.064 226.556C119.191 237.351 133.531 247.746 147.87 252.944L133.929 289.728Z" fill="#163144"/>
<path d="M133.93 280.132C116.802 272.935 102.463 262.94 88.9204 254.144L100.472 235.752C114.811 244.948 128.354 254.544 141.896 260.141L133.93 280.132Z" fill="white"/>
<path d="M104.851 235.752L101.664 233.753L104.054 229.755L107.24 232.154L104.851 235.752Z" fill="white"/>
<path d="M109.233 238.551L106.046 236.551L108.436 232.553L111.623 234.952L109.233 238.551Z" fill="white"/>
<path d="M112.841 235.461L110.247 239.49L113.592 241.661L116.186 237.631L112.841 235.461Z" fill="white"/>
<path d="M117.995 244.148L114.808 242.149L117.198 238.551L120.385 240.55L117.995 244.148Z" fill="white"/>
<path d="M121.977 246.947L118.791 244.948L121.18 240.949L124.367 242.949L121.977 246.947Z" fill="white"/>
<path d="M125.961 249.346L123.173 247.347L125.563 243.749L128.351 245.348L125.961 249.346Z" fill="white"/>
<path d="M130.344 251.745C129.149 251.345 128.352 250.545 127.157 250.146L129.547 246.147C130.742 246.947 131.539 247.347 132.734 247.747L130.344 251.745Z" fill="white"/>
<path d="M134.326 254.144C133.131 253.744 132.334 252.944 131.139 252.545L133.131 248.546C134.326 248.946 135.122 249.746 136.317 250.146L134.326 254.144Z" fill="white"/>
<path d="M138.708 256.143L135.521 254.544L137.513 250.545L140.301 251.745L138.708 256.143Z" fill="white"/>
<path d="M142.69 257.742C141.495 257.342 140.698 256.942 139.503 256.543L141.495 252.145C142.292 252.544 143.487 252.944 144.283 253.344L142.69 257.742Z" fill="white"/>
<path d="M88.1216 262.14L84.9351 260.141L87.3249 256.143L90.5115 258.142L88.1216 262.14Z" fill="white"/>
<path d="M92.5039 264.939L89.3174 262.94L91.7073 258.941L94.8938 260.941L92.5039 264.939Z" fill="white"/>
<path d="M96.2248 261.651L93.6304 265.681L96.9758 267.851L99.5703 263.822L96.2248 261.651Z" fill="white"/>
<path d="M101.266 270.536L97.6816 268.537L100.47 264.539L103.656 266.538L101.266 270.536Z" fill="white"/>
<path d="M105.646 273.335L102.062 271.336L104.85 267.338L108.036 269.337L105.646 273.335Z" fill="white"/>
<path d="M110.426 276.134L106.841 274.135L109.231 270.137L112.816 272.136L110.426 276.134Z" fill="white"/>
<path d="M115.206 278.933C114.011 278.133 112.817 277.733 111.622 276.934L114.011 272.935C115.206 273.735 116.401 274.135 117.596 274.934L115.206 278.933Z" fill="white"/>
<path d="M120.385 281.731C119.19 280.932 117.596 280.532 116.401 279.732L118.393 275.734C119.588 276.534 120.783 276.934 121.978 277.733L120.385 281.731Z" fill="white"/>
<path d="M125.562 284.13L121.579 282.531L123.571 278.133L127.554 280.132L125.562 284.13Z" fill="white"/>
<path d="M131.14 286.529C129.547 286.129 128.352 285.33 127.157 284.93L129.148 280.532C130.343 280.932 131.937 281.731 133.131 282.131L131.14 286.529Z" fill="white"/>
<path d="M279.313 216.96C277.321 218.559 275.33 219.759 273.338 220.958C270.948 222.158 268.957 223.357 266.567 224.557C262.186 226.556 257.804 228.155 253.423 229.355C245.058 231.754 237.49 232.953 230.32 234.152C215.583 236.951 200.048 239.75 182.921 239.35L183.718 200.168C196.065 200.567 209.21 198.169 223.151 195.77C230.32 194.57 237.49 192.971 242.668 191.771C245.456 190.972 247.846 190.172 250.236 188.973C251.431 188.573 252.228 188.173 253.024 187.373C253.821 186.974 255.016 186.174 256.211 185.374L279.313 216.96Z" fill="#163144"/>
<path d="M268.956 212.962C262.184 216.96 255.015 219.359 248.243 221.358C241.472 222.957 235.099 224.157 228.726 225.356C215.98 227.755 202.835 230.154 188.894 230.554L188.496 208.964C200.446 208.564 212.395 206.565 224.743 204.166C237.489 201.767 249.438 199.768 257.803 194.57L268.956 212.962Z" fill="white"/>
<path d="M193.676 206.165C191.684 206.165 190.091 206.165 188.099 206.565V201.767C189.692 201.767 191.684 201.767 193.277 201.367L193.676 206.165Z" fill="white"/>
<path d="M200.844 205.365L195.666 205.765L195.268 201.367L200.446 200.967L200.844 205.365Z" fill="white"/>
<path d="M208.414 204.565L202.837 205.365L202.439 200.567L207.617 199.768L208.414 204.565Z" fill="white"/>
<path d="M215.981 203.366L210.405 204.166L209.608 199.768L215.184 198.568L215.981 203.366Z" fill="white"/>
<path d="M223.55 201.767L217.575 202.966L216.779 198.568L222.355 197.369L223.55 201.767Z" fill="white"/>
<path d="M231.117 200.567L225.142 201.367L224.345 196.969L230.32 195.769L231.117 200.567Z" fill="white"/>
<path d="M238.685 198.968L233.109 200.168L232.312 195.37L237.49 194.57L238.685 198.968Z" fill="white"/>
<path d="M245.456 196.969C243.863 197.369 242.27 197.768 240.278 198.168L239.083 193.77C240.676 193.37 242.27 192.971 243.863 192.571L245.456 196.969Z" fill="white"/>
<path d="M251.43 194.97C249.837 195.37 248.642 196.169 247.049 196.569L245.854 192.171C247.447 191.771 248.642 191.371 249.837 190.572L251.43 194.97Z" fill="white"/>
<path d="M256.609 192.571C255.414 193.37 254.219 194.17 252.625 194.57L250.634 190.572C251.829 190.172 253.024 189.372 254.219 188.972L256.609 192.571Z" fill="white"/>
<path d="M195.666 237.351C193.276 237.351 191.285 237.751 188.895 237.751V232.953C190.887 232.953 193.276 232.953 195.268 232.553L195.666 237.351Z" fill="white"/>
<path d="M204.429 236.551C202.437 236.951 200.047 236.951 198.056 237.351L197.657 232.953C199.649 232.953 202.039 232.553 204.03 232.553L204.429 236.551Z" fill="white"/>
<path d="M212.793 235.352L206.818 236.151L206.021 231.753L212.395 230.554L212.793 235.352Z" fill="white"/>
<path d="M221.16 234.152L215.185 234.952L214.388 230.554L220.363 229.354L221.16 234.152Z" fill="white"/>
<path d="M229.124 232.553L223.149 233.753L222.353 228.955L228.327 228.155L229.124 232.553Z" fill="white"/>
<path d="M237.09 230.954L231.115 232.153L230.319 227.755L236.294 226.556L237.09 230.954Z" fill="white"/>
<path d="M245.455 229.355L239.082 230.554L238.286 226.156L244.26 224.957L245.455 229.355Z" fill="white"/>
<path d="M254.218 226.956C251.828 227.755 249.837 228.155 247.447 228.555L246.252 224.157C248.244 223.757 250.633 222.957 252.625 222.558L254.218 226.956Z" fill="white"/>
<path d="M263.379 223.757C260.989 224.557 258.599 225.356 256.209 226.156L254.616 222.158C257.006 221.358 258.998 220.558 261.388 219.759L263.379 223.757Z" fill="white"/>
<path d="M272.94 218.959C270.55 220.558 268.16 221.758 265.77 222.558L263.778 218.559C266.168 217.36 268.16 216.56 270.55 214.961L272.94 218.959Z" fill="white"/>
<path d="M343.838 166.583C339.456 169.781 335.473 171.781 331.888 173.38C328.304 174.979 325.117 176.578 322.727 178.178C317.151 180.976 312.769 184.175 308.388 187.773C307.193 188.573 306.396 189.773 305.201 190.572C304.006 191.772 303.21 192.571 302.015 193.771C300.023 196.17 298.43 197.769 295.642 201.367C290.464 207.764 282.896 214.961 274.531 219.759L253.819 186.174C258.2 183.375 261.387 180.577 265.37 175.779C267.362 173.38 270.15 169.781 272.938 166.583C274.133 164.984 276.124 163.384 277.319 161.785C278.913 160.186 280.506 158.586 282.099 157.387C288.871 151.39 296.439 146.592 303.608 142.594C307.193 140.594 310.778 138.995 313.964 137.396C316.753 135.797 319.541 134.597 320.736 133.398L343.838 166.583Z" fill="#163144"/>
<path d="M333.482 162.585C327.109 166.183 321.135 168.582 316.355 171.381C311.177 174.18 306.795 177.378 302.414 180.977C300.024 182.576 298.431 184.975 296.041 186.974C294.049 189.373 292.058 190.972 290.066 193.771C286.083 198.968 280.506 204.966 274.532 209.364L261.786 191.772C266.167 188.573 269.752 184.975 273.337 180.177C275.328 177.778 277.718 174.979 280.108 172.18C282.498 169.782 284.888 166.983 288.074 164.584C293.651 159.786 299.626 155.788 305.6 152.189C311.575 148.591 317.948 146.192 322.728 143.393L333.482 162.585Z" fill="white"/>
<path d="M264.173 186.974C262.978 188.173 261.783 188.973 260.588 189.772L257.8 186.174C258.995 185.374 260.19 184.575 260.987 183.375L264.173 186.974Z" fill="white"/>
<path d="M268.556 182.176C267.361 183.375 266.166 184.575 265.369 185.774L262.183 182.576C263.378 181.376 264.174 180.576 265.369 179.377L268.556 182.176Z" fill="white"/>
<path d="M273.334 176.578L269.749 180.976L266.165 178.178L270.148 173.38L273.334 176.578Z" fill="white"/>
<path d="M279.309 169.781C277.715 171.381 276.52 172.98 274.927 174.579L271.342 171.78C272.936 170.181 274.529 168.182 276.122 166.583L279.309 169.781Z" fill="white"/>
<path d="M285.682 163.784C284.089 165.383 282.496 166.983 280.902 168.582L277.716 165.383C279.309 163.784 280.902 162.185 282.894 160.585L285.682 163.784Z" fill="white"/>
<path d="M292.853 158.187C290.861 159.386 289.268 160.985 287.675 162.585L284.887 158.986C286.48 157.387 288.472 155.788 290.463 154.588L292.853 158.187Z" fill="white"/>
<path d="M300.42 152.989C298.428 154.188 296.437 155.388 294.843 156.587L292.055 152.989C294.047 151.789 296.038 150.19 298.03 148.99L300.42 152.989Z" fill="white"/>
<path d="M307.989 148.591C305.997 149.79 304.005 150.59 302.014 151.789L299.624 147.791C301.616 146.592 303.607 145.392 305.599 144.593L307.989 148.591Z" fill="white"/>
<path d="M315.156 144.993L309.978 147.791L307.588 143.393L313.165 140.994L315.156 144.993Z" fill="white"/>
<path d="M321.929 141.794C320.734 142.594 318.742 143.393 317.149 144.193L315.157 140.195C316.75 139.395 318.344 138.595 319.539 137.796L321.929 141.794Z" fill="white"/>
<path d="M284.887 210.163C282.896 211.763 280.904 213.362 278.913 214.961L276.125 211.363C278.116 209.764 280.108 208.564 281.701 206.965L284.887 210.163Z" fill="white"/>
<path d="M291.658 202.966C290.065 204.566 288.472 206.565 286.48 208.164L283.293 204.965C284.887 203.366 286.48 201.767 288.073 199.768L291.658 202.966Z" fill="white"/>
<path d="M297.236 196.569L293.651 201.367L290.066 198.169L293.651 193.371L297.236 196.569Z" fill="white"/>
<path d="M301.616 191.372C300.421 192.571 299.226 193.771 298.429 194.97L294.844 191.772C296.039 190.572 297.234 188.973 298.429 187.773L301.616 191.372Z" fill="white"/>
<path d="M306.395 186.974C305.2 187.774 304.005 189.373 302.811 190.172L299.624 186.974C300.819 185.774 302.014 184.575 303.209 183.375L306.395 186.974Z" fill="white"/>
<path d="M311.177 182.976C309.982 183.775 308.787 184.975 307.592 185.774L304.804 182.176C305.999 180.976 307.592 180.177 308.787 178.977L311.177 182.976Z" fill="white"/>
<path d="M316.753 179.377L312.77 182.176L309.982 178.178L314.363 175.379L316.753 179.377Z" fill="white"/>
<path d="M322.328 176.179C320.735 176.978 319.142 177.778 317.947 178.578L315.557 174.579C317.15 173.78 318.744 172.98 320.337 172.18L322.328 176.179Z" fill="white"/>
<path d="M329.1 172.98L323.922 175.379L321.931 171.381L327.109 168.982L329.1 172.98Z" fill="white"/>
<path d="M337.066 168.582C334.676 169.781 333.083 170.981 331.091 171.781L329.1 167.782C331.091 166.583 333.083 165.783 335.074 164.584L337.066 168.582Z" fill="white"/>
<path d="M360.568 79.4217C359.373 83.0201 359.373 85.4191 360.17 90.6167C360.568 93.0157 361.763 96.2142 362.56 99.8126C363.755 103.411 364.95 107.409 365.746 112.607C366.145 115.006 366.543 117.805 366.543 120.603C366.543 123.402 366.543 126.201 366.145 129.399C365.746 135.397 363.755 140.994 361.365 146.192C360.17 148.591 358.577 150.99 356.983 153.389C355.39 155.788 353.399 158.187 351.407 160.186C347.424 164.584 342.644 167.782 338.661 170.181L319.144 135.797C321.533 134.597 322.728 133.398 323.525 132.598C323.923 132.198 324.322 131.399 324.72 130.999C325.118 130.199 325.517 129.799 325.915 129C326.313 128.2 326.712 127.4 326.712 127C326.712 126.601 326.712 126.201 327.11 125.801V124.602C327.508 123.802 327.11 123.002 327.11 122.203C327.11 121.403 327.11 120.603 326.712 119.004C326.313 117.005 325.517 113.806 324.72 110.608C323.923 107.009 322.728 103.411 321.533 98.6132C319.542 89.8171 319.542 77.0228 323.127 66.6274L360.568 79.4217Z" fill="#163144"/>
<path d="M351.008 80.2214C350.211 84.6195 350.61 89.4173 351.805 95.0148C353 100.612 355.389 107.009 356.584 114.606C356.983 116.605 356.983 118.604 357.381 120.603C357.381 122.603 357.381 125.001 357.381 127.001C356.983 131.399 356.186 135.397 354.593 139.395C353 143.393 351.008 146.992 348.22 150.59C345.83 154.188 342.245 156.987 339.059 159.386L326.312 141.794C327.906 140.195 329.897 138.995 331.092 137.396C332.287 135.797 333.482 133.798 334.279 131.798C335.872 127.8 336.27 123.802 335.474 118.604C334.677 113.407 332.686 107.809 330.694 100.612C329.101 93.8154 327.906 85.0193 329.499 76.623L351.008 80.2214Z" fill="white"/>
<path d="M328.304 136.996C327.508 137.796 326.711 138.595 325.516 139.395L322.728 135.797C323.525 134.997 324.321 134.597 324.72 133.798L328.304 136.996Z" fill="white"/>
<path d="M331.093 132.998C330.695 134.197 329.898 134.997 329.101 135.797L325.517 132.598C325.915 131.799 326.712 131.399 327.11 130.199L331.093 132.998Z" fill="white"/>
<path d="M333.084 128.6C332.686 129.8 332.287 130.999 331.889 132.198L327.906 130.199C328.304 129.4 328.702 128.2 329.101 127.401L333.084 128.6Z" fill="white"/>
<path d="M333.881 124.202C333.881 125.401 333.881 126.601 333.483 127.8L329.101 126.601C329.499 125.801 329.499 125.001 329.499 123.802L333.881 124.202Z" fill="white"/>
<path d="M333.483 119.004C333.483 120.204 333.881 121.803 333.881 123.002H329.101C329.101 122.203 329.101 121.003 328.703 119.804L333.483 119.004Z" fill="white"/>
<path d="M332.287 112.607C332.686 114.206 333.084 115.806 333.482 117.405L329.101 118.205C329.101 117.005 328.304 115.406 327.906 113.807L332.287 112.607Z" fill="white"/>
<path d="M329.898 105.01L331.491 110.608L327.11 111.807L325.517 106.21L329.898 105.01Z" fill="white"/>
<path d="M327.907 96.2144C328.305 98.6133 328.703 101.012 329.5 103.011L325.119 104.211C324.72 102.212 323.924 99.4129 323.525 97.014L327.907 96.2144Z" fill="white"/>
<path d="M326.712 86.6187C326.712 89.4174 327.11 91.8163 327.508 94.2153L323.127 95.0149C322.728 92.616 322.33 89.8172 322.33 86.6187H326.712Z" fill="white"/>
<path d="M327.907 75.4237L327.11 79.4219L326.712 83.8199L322.331 83.4201V79.0221L323.127 74.624L327.907 75.4237Z" fill="white"/>
<path d="M350.212 158.586C348.22 160.985 345.83 162.584 343.441 164.584L340.652 160.985C342.644 159.386 345.034 157.787 347.025 155.388L350.212 158.586Z" fill="white"/>
<path d="M357.78 148.991C356.186 151.789 354.593 154.188 352.601 156.587L349.017 153.389C350.61 150.99 352.601 148.991 353.796 146.592L357.78 148.991Z" fill="white"/>
<path d="M362.56 137.795C361.763 140.994 360.568 143.393 359.373 146.192L355.39 144.193C356.585 141.794 357.78 139.395 358.577 136.596L362.56 137.795Z" fill="white"/>
<path d="M364.948 125.801C364.55 129 364.55 132.198 363.754 134.997L359.372 133.797C360.169 130.999 360.567 128.2 360.567 125.401L364.948 125.801Z" fill="white"/>
<path d="M364.153 114.206C364.552 117.005 364.95 119.804 364.95 122.602H360.17C360.17 119.804 359.772 117.405 359.772 114.606L364.153 114.206Z" fill="white"/>
<path d="M362.16 104.61C362.559 107.009 363.355 109.008 363.754 111.807L359.372 112.607C358.974 110.208 358.177 108.209 357.779 105.81L362.16 104.61Z" fill="white"/>
<path d="M359.772 96.6138L361.365 102.611L356.983 103.811L355.39 97.8132L359.772 96.6138Z" fill="white"/>
<path d="M358.576 90.217C358.974 91.8163 358.974 93.0158 359.771 95.0149L355.389 96.2144C354.991 94.6151 354.593 93.0158 354.194 91.4165L358.576 90.217Z" fill="white"/>
<path d="M357.78 85.8186C357.78 87.0181 357.78 88.2175 358.179 89.417L353.797 90.2166C353.399 88.6174 353.399 87.4179 353.399 85.8186H357.78Z" fill="white"/>
<path d="M358.179 81.4207C358.179 81.8206 358.179 82.2204 357.781 83.02C357.781 83.4198 357.781 84.2195 357.781 84.6193H353.001V82.6202L353.399 80.6211L358.179 81.4207Z" fill="white"/>
<path d="M413.545 50.2347C400.401 53.0334 387.655 57.0316 377.697 62.6291C372.519 65.4279 368.535 68.6264 365.349 71.825C362.561 75.0236 360.569 78.2222 360.171 81.8205L321.933 73.4243C324.323 62.2293 329.899 52.6336 336.67 45.037C343.442 37.4404 351.408 32.2427 358.976 27.8447C374.51 19.4484 390.044 15.0504 405.18 11.8518L413.545 50.2347Z" fill="#163144"/>
<path d="M407.172 42.6383C395.222 45.437 383.671 49.4352 373.713 54.6329C363.755 60.2304 355.391 67.4272 352.603 76.2233L332.289 68.6267C335.077 60.6302 339.857 53.8333 345.433 48.6356C351.009 43.0381 357.382 39.0399 363.357 35.4415C376.103 28.6445 389.248 24.6463 402.392 21.4478L407.172 42.6383Z" fill="white"/>
<path d="M333.085 60.6299C331.89 63.0288 330.695 65.4277 329.898 67.8267L325.517 66.2274C326.313 63.4286 327.508 61.0297 329.101 58.231L333.085 60.6299Z" fill="white"/>
<path d="M338.661 52.2336C337.068 54.2327 335.474 56.2318 334.28 58.6307L330.296 56.2318C331.89 53.8329 333.483 51.4339 335.076 49.4348L338.661 52.2336Z" fill="white"/>
<path d="M345.83 45.0366C343.839 46.6359 342.245 48.635 340.652 50.2343L337.067 47.0357C339.059 45.0366 340.652 43.0375 342.644 41.4382L345.83 45.0366Z" fill="white"/>
<path d="M353.399 39.0396C351.408 40.239 349.416 41.8383 347.823 43.4376L344.636 39.8392C346.628 38.2399 348.619 36.6406 350.611 35.4412L353.399 39.0396Z" fill="white"/>
<path d="M360.968 34.2416C358.976 35.4411 356.984 36.6406 354.993 37.84L352.603 33.8418C354.595 32.2425 356.586 31.4429 358.976 30.2434L360.968 34.2416Z" fill="white"/>
<path d="M368.934 30.2432L362.959 33.042L360.967 29.0438L366.942 25.8452L368.934 30.2432Z" fill="white"/>
<path d="M377.298 26.6451C375.306 27.4447 373.315 28.2444 371.323 29.044L369.332 24.646C371.323 23.8464 373.315 22.6469 375.705 22.2471L377.298 26.6451Z" fill="white"/>
<path d="M385.264 23.8463C383.272 24.6459 381.281 25.0457 379.289 25.8454L377.696 21.4473C379.687 20.6477 381.679 19.8481 384.069 19.4482L385.264 23.8463Z" fill="white"/>
<path d="M393.23 21.4474C391.238 21.8472 389.247 22.6468 387.255 23.4465L386.06 19.0484C388.052 18.2488 390.043 17.849 392.433 17.0493L393.23 21.4474Z" fill="white"/>
<path d="M401.595 19.4482C399.603 19.8481 397.612 20.2479 395.62 21.0475L394.027 16.2497C396.018 15.45 398.01 15.0502 400.4 14.6504L401.595 19.4482Z" fill="white"/>
<path d="M360.171 75.8232C359.773 76.6229 358.976 77.8224 358.976 78.622L354.595 77.0227C354.993 75.8232 355.391 74.6238 356.188 73.4243L360.171 75.8232Z" fill="white"/>
<path d="M362.958 71.8249C362.161 72.6245 361.365 73.824 360.967 74.6236L356.983 72.2247C357.78 71.0252 358.577 69.8258 359.373 69.0261L362.958 71.8249Z" fill="white"/>
<path d="M366.543 68.2266C365.348 69.0262 364.551 70.2257 363.755 71.0253L360.17 67.8267C361.365 66.6273 362.162 65.8276 363.356 64.6282L366.543 68.2266Z" fill="white"/>
<path d="M370.925 64.6284C369.73 65.4281 368.535 66.2277 367.34 67.4272L364.552 63.8288C365.747 63.0291 366.942 61.8297 368.535 61.03L370.925 64.6284Z" fill="white"/>
<path d="M376.103 61.4296C374.908 62.2293 373.315 63.0289 372.12 63.8285L369.73 59.8303C370.925 59.0307 372.518 58.231 374.111 57.4314L376.103 61.4296Z" fill="white"/>
<path d="M382.079 58.6309L377.697 60.63L375.308 56.6318L380.087 54.2329L382.079 58.6309Z" fill="white"/>
<path d="M388.452 55.8321C386.859 56.2319 385.265 57.0316 383.672 57.8312L381.681 53.4332C383.274 52.6335 384.867 51.8339 386.46 51.4341L388.452 55.8321Z" fill="white"/>
<path d="M394.823 53.4332C393.23 53.833 391.637 54.6327 389.645 55.0325L388.052 50.6344C389.645 49.8348 391.637 49.435 393.23 49.0352L394.823 53.4332Z" fill="white"/>
<path d="M401.596 51.4342C400.003 51.834 398.011 52.2338 396.418 53.0335L395.223 48.6354C396.816 48.2356 398.808 47.436 400.401 47.0361L401.596 51.4342Z" fill="white"/>
<path d="M408.765 49.8348C407.171 50.2346 405.18 50.6344 403.587 51.0343L402.392 46.6362C403.985 46.2364 405.976 45.8366 407.968 45.4368L408.765 49.8348Z" fill="white"/>
<path d="M180.931 225.357C217.228 225.357 246.653 195.821 246.653 159.386C246.653 122.952 217.228 93.4155 180.931 93.4155C144.634 93.4155 115.209 122.952 115.209 159.386C115.209 195.821 144.634 225.357 180.931 225.357Z" fill="#3E588F"/>
<path d="M180.931 31.0432C110.429 31.0432 53.0718 88.6175 53.0718 159.386C53.0718 230.154 110.429 287.729 180.931 287.729C251.432 287.729 308.79 230.154 308.79 159.386C308.79 88.6175 251.432 31.0432 180.931 31.0432ZM127.158 235.752C112.022 234.952 100.073 222.158 100.87 206.965C101.666 191.771 114.412 179.777 129.548 180.576C144.684 181.376 156.634 194.17 155.837 209.364C155.04 224.557 142.294 236.551 127.158 235.752ZM129.947 135.796C114.811 135.796 102.463 123.402 102.463 108.209C102.463 93.0155 114.811 80.6211 129.947 80.6211C145.082 80.6211 157.43 93.0155 157.43 108.209C157.43 123.402 145.082 135.796 129.947 135.796ZM231.915 237.751C216.779 237.751 204.431 225.356 204.431 210.163C204.431 194.97 216.779 182.576 231.915 182.576C247.051 182.576 259.399 194.97 259.399 210.163C259.399 225.356 247.051 237.751 231.915 237.751ZM232.712 137.796C217.576 136.996 205.626 124.202 206.423 109.008C206.821 93.8152 219.966 81.8205 235.102 82.6202C250.238 83.4198 262.187 96.2141 261.39 111.407C260.594 126.601 247.848 138.595 232.712 137.796Z" fill="#163144"/>
<path d="M127.953 116.205C132.733 134.197 95.6897 173.38 54.6633 172.58C16.0268 171.78 -18.6266 135.796 -13.8468 117.804C-9.86365 103.811 20.0099 93.8151 30.7644 93.0154C31.5611 93.0154 33.951 92.6156 37.1375 92.2158C46.2987 90.6165 49.4852 87.4179 55.0616 85.8187C59.4431 84.6192 66.6128 86.2185 80.1555 89.417C91.7066 92.2158 97.6813 93.8151 101.664 95.4144C107.241 98.2131 125.165 105.81 127.953 116.205Z" fill="#FFB000"/>
<path d="M130.343 115.405L129.945 123.802L118.394 292.926H-3.4905L-15.0416 127L-15.4399 120.203L-11.4568 114.206H-10.2619V115.805L0.492647 131.398V130.998L10.4505 117.005L12.4421 114.206L20.8067 125.801L24.3915 130.998L26.7814 127.8L36.341 114.206L44.3073 125.801L48.2904 131.398L54.2651 123.002L60.2398 114.606L61.8331 117.005L71.791 130.998L72.1893 131.398L80.9522 119.004C80.9522 118.604 84.1387 114.606 84.1387 114.606L90.9101 123.802L96.0882 131.398L98.8764 127.4L108.038 114.206L109.233 115.805L116.004 125.801L119.987 131.398L126.36 122.202C125.962 122.202 130.343 115.405 130.343 115.405Z" fill="#F9D4D3"/>
<path d="M11.6447 292.926H1.68686L-9.46595 124.201L-9.86426 115.805L0.890233 131.398V130.998L1.28855 137.795L11.6447 292.926Z" fill="#D64759"/>
<path d="M125.562 122.202L125.164 130.199L114.41 292.926H104.452L115.206 132.598L115.604 125.801L119.588 131.398L125.562 122.202Z" fill="#D64759"/>
<path d="M108.833 115.805L108.435 123.002L100.867 292.926H91.3076L98.079 135.396L98.4773 127.4L107.639 114.206L108.833 115.805Z" fill="#D64759"/>
<path d="M90.5117 123.402L90.1134 130.599L86.1302 292.526H76.1724L80.1555 125.801V118.204C80.1555 117.804 83.342 113.806 83.342 113.806L90.5117 123.402Z" fill="#D64759"/>
<path d="M71.7904 130.998V292.926H61.8325V116.605L71.7904 130.998Z" fill="#D64759"/>
<path d="M54.266 122.602V292.926H44.3081V125.401L48.2913 131.398L54.266 122.602Z" fill="#D64759"/>
<path d="M40.3244 292.926H30.7649L26.7817 134.997V127.8L36.3413 114.206V121.802L40.3244 292.926Z" fill="#D64759"/>
<path d="M24.7896 292.926H14.8318L10.8486 124.201V117.005L12.8402 114.206L21.2048 125.801L21.6031 133.797L24.7896 292.926Z" fill="#D64759"/>
<path d="M130.341 115.405L129.943 123.802L125.562 130.199L119.587 138.595L115.205 132.598L108.434 123.002L107.637 121.802L98.0779 135.396L95.688 138.995L90.1116 130.998L83.7386 121.802L80.552 126.6L72.1874 138.995L71.7891 138.595L61.8313 124.601L60.238 122.202L54.2633 130.598L48.2886 138.995L44.3054 133.397L36.3391 122.202V121.802L26.7796 135.396L24.3897 138.995L20.8049 133.797L12.4403 121.802L10.847 123.802L1.28744 137.795L0.490814 138.595L-9.46705 124.201L-11.0603 121.802L-14.6451 127L-15.0435 120.203L-11.0603 114.206L-9.86537 115.805L0.889123 131.398V130.998L10.847 117.005L12.8386 114.206L21.2032 125.801L24.788 130.998L27.1779 127.8L36.7374 114.206L44.7037 125.801L48.6869 131.398L54.6616 123.002L60.6363 114.606L62.2296 117.005L72.1874 130.998L72.5858 131.398L81.3487 119.004C81.3487 118.604 84.5352 114.606 84.5352 114.606L91.3065 123.802L96.4846 131.398L99.2728 127.4L108.434 114.206L109.629 115.805L116.4 125.801L120.383 131.398L126.757 122.202C125.96 122.202 130.341 115.405 130.341 115.405Z" fill="#D64759"/>
<path d="M7.26414 103.011C7.26414 105.01 5.67089 107.009 3.281 107.009C1.28942 107.009 -0.702148 105.41 -0.702148 103.011C-0.702148 101.012 0.89111 99.0127 3.281 99.0127C5.67089 99.0127 7.26414 101.012 7.26414 103.011Z" fill="#FFB000"/>
<path d="M14.0339 97.4136C14.0339 100.612 11.2457 103.411 8.05919 103.411C4.87268 103.411 2.08447 100.612 2.08447 97.4136C2.08447 94.215 4.87268 91.4163 8.05919 91.4163C11.2457 91.4163 14.0339 94.215 14.0339 97.4136Z" fill="#FFB000"/>
<path d="M14.0348 98.613C16.4546 98.613 18.4162 96.6439 18.4162 94.2149C18.4162 91.786 16.4546 89.8169 14.0348 89.8169C11.615 89.8169 9.65332 91.786 9.65332 94.2149C9.65332 96.6439 11.615 98.613 14.0348 98.613Z" fill="#FFB000"/>
<path d="M27.9751 91.4162C27.9751 95.0146 25.1869 97.8133 21.602 97.8133C18.0172 97.8133 15.229 95.0146 15.229 91.4162C15.229 87.8178 18.0172 85.019 21.602 85.019C24.7886 85.019 27.9751 87.8178 27.9751 91.4162Z" fill="#FFB000"/>
<path d="M1.28855 111.807C1.28855 115.406 -1.49966 117.804 -5.08449 117.804C-8.66932 117.804 -11.4575 115.006 -11.4575 111.807C-11.4575 108.209 -8.66932 105.81 -5.08449 105.81C-1.49966 105.41 1.28855 108.209 1.28855 111.807Z" fill="#FFB000"/>
<path d="M6.86545 107.009C6.86545 109.408 4.07725 111.807 0.890735 111.807C-2.29578 111.807 -5.08398 109.808 -5.08398 107.009C-5.08398 104.61 -2.29578 102.211 0.890735 102.211C4.07725 102.611 6.86545 104.61 6.86545 107.009Z" fill="#FFB000"/>
<path d="M35.5434 97.0138C35.5434 101.412 32.3569 105.01 28.3738 105.01C24.3906 105.01 21.2041 101.412 21.2041 97.0138C21.2041 92.6157 24.3906 89.0173 28.3738 89.0173C32.3569 89.0173 35.5434 92.6157 35.5434 97.0138Z" fill="#FFB000"/>
<path d="M45.1035 96.2139C45.1035 100.612 41.917 104.61 37.9338 104.61C33.9507 104.61 30.7642 101.012 30.7642 96.2139C30.7642 91.416 33.9507 87.8176 37.9338 87.8176C41.917 88.2174 45.1035 91.8158 45.1035 96.2139Z" fill="#FFB000"/>
<path d="M46.6976 99.8123C50.4373 99.8123 53.469 96.4112 53.469 92.2157C53.469 88.0203 50.4373 84.6191 46.6976 84.6191C42.9579 84.6191 39.9263 88.0203 39.9263 92.2157C39.9263 96.4112 42.9579 99.8123 46.6976 99.8123Z" fill="#FFB000"/>
<path d="M44.3061 89.4171C44.3061 91.816 41.9162 93.8151 38.7297 93.8151C35.5432 93.8151 33.1533 91.816 33.1533 89.4171C33.1533 87.0182 35.5432 85.019 38.7297 85.019C41.5179 85.019 44.3061 87.0182 44.3061 89.4171Z" fill="#FFB000"/>
<path d="M64.2219 89.417C64.2219 94.2149 60.2387 97.8133 55.0606 97.8133C49.8826 97.8133 45.8994 94.2149 45.8994 89.417C45.8994 84.6191 49.8826 81.0208 55.0606 81.0208C59.8404 81.0208 64.2219 85.019 64.2219 89.417Z" fill="#FFB000"/>
<path d="M78.5617 88.6173C78.5617 92.2157 73.7819 95.0144 67.8072 95.0144C61.8325 95.0144 57.0527 92.2157 57.0527 88.6173C57.0527 85.0189 61.8325 82.2202 67.8072 82.2202C74.1803 81.8203 78.5617 85.0189 78.5617 88.6173Z" fill="#FFB000"/>
<path d="M88.1218 93.0155C88.1218 97.4135 84.537 101.012 80.5538 101.012C76.1723 101.012 72.9858 97.4135 72.9858 93.0155C72.9858 88.6174 76.5707 85.019 80.5538 85.019C84.9353 85.019 88.1218 88.6174 88.1218 93.0155Z" fill="#FFB000"/>
<path d="M89.3164 99.4126C92.8361 99.4126 95.6894 96.7275 95.6894 93.4153C95.6894 90.1031 92.8361 87.418 89.3164 87.418C85.7967 87.418 82.9434 90.1031 82.9434 93.4153C82.9434 96.7275 85.7967 99.4126 89.3164 99.4126Z" fill="#FFB000"/>
<path d="M102.858 98.2132C102.858 101.812 100.468 105.01 97.282 105.01C94.0955 105.01 91.7056 101.812 91.7056 98.2132C91.7056 94.6148 94.0955 91.4163 97.282 91.4163C100.07 91.4163 102.858 94.6148 102.858 98.2132Z" fill="#FFB000"/>
<path d="M98.8765 91.8161C98.8765 93.4154 97.6815 94.6148 96.4866 94.6148C95.2916 94.6148 94.0967 93.4154 94.0967 91.8161C94.0967 90.2168 95.2916 89.0173 96.4866 89.0173C98.0798 89.0173 98.8765 90.2168 98.8765 91.8161Z" fill="#FFB000"/>
<path d="M117.994 113.806C117.994 109.808 120.384 106.609 123.172 106.609C125.96 106.609 128.35 109.808 128.35 113.806C128.35 117.804 125.96 121.003 123.172 121.003C120.384 120.603 117.994 117.405 117.994 113.806Z" fill="#FFB000"/>
<path d="M125.562 106.209C125.562 109.408 123.173 112.207 119.986 112.207C116.8 112.207 114.41 109.408 114.41 106.209C114.41 103.011 116.8 100.212 119.986 100.212C123.173 99.8123 125.562 102.611 125.562 106.209Z" fill="#FFB000"/>
<path d="M120.783 102.611C120.783 105.81 117.994 108.208 114.41 108.208C110.825 108.208 108.037 105.81 108.037 102.611C108.037 99.4124 110.825 97.0134 114.41 97.0134C117.994 97.0134 120.783 99.4124 120.783 102.611Z" fill="#FFB000"/>
<path d="M108.437 104.61C111.956 104.61 114.81 102.462 114.81 99.8125C114.81 97.1627 111.956 95.0146 108.437 95.0146C104.917 95.0146 102.063 97.1627 102.063 99.8125C102.063 102.462 104.917 104.61 108.437 104.61Z" fill="#FFB000"/>
<path d="M112.419 97.4135C112.419 100.212 109.631 102.611 106.444 102.611C103.258 102.611 100.47 100.212 100.47 97.4135C100.47 94.6147 103.258 92.2158 106.444 92.2158C109.631 92.6156 112.419 94.6147 112.419 97.4135Z" fill="#FFB000"/>
<path d="M131.537 115.405C131.537 118.204 129.944 120.603 127.953 120.603C125.961 120.603 124.368 118.204 124.368 115.405C124.368 112.607 125.961 110.208 127.953 110.208C129.944 109.808 131.537 112.207 131.537 115.405Z" fill="#FFB000"/>
<path d="M31.5603 101.811C31.5603 104.61 27.5772 107.009 26.7805 106.209C25.9839 105.81 26.7805 103.411 25.5856 103.011C24.789 102.611 23.9923 103.811 22.3991 103.811C21.2041 103.811 19.6109 102.611 19.2125 101.811C18.8142 100.212 22.0007 97.8132 25.1873 97.8132C28.3738 97.8132 31.5603 99.4125 31.5603 101.811Z" fill="#E29700"/>
<path d="M6.06762 104.61C7.38752 104.61 8.45751 103.715 8.45751 102.611C8.45751 101.507 7.38752 100.612 6.06762 100.612C4.74772 100.612 3.67773 101.507 3.67773 102.611C3.67773 103.715 4.74772 104.61 6.06762 104.61Z" fill="#E29700"/>
<path d="M12.4412 97.0135C12.4412 97.4133 12.0428 97.8132 11.2462 97.8132C10.4496 97.8132 10.0513 97.4133 10.0513 97.0135C10.0513 96.6137 10.4496 96.2139 11.2462 96.2139C12.0428 96.2139 12.4412 96.6137 12.4412 97.0135Z" fill="#E29700"/>
<path d="M20.4075 105.01C20.4075 106.209 18.8142 107.409 16.8226 107.409C14.831 107.409 13.2378 106.209 13.2378 105.01C13.2378 103.811 14.831 102.611 16.8226 102.611C18.8142 102.611 20.4075 103.411 20.4075 105.01Z" fill="#E29700"/>
<path d="M25.1872 95.8141C25.1872 97.4134 23.594 98.6129 21.6024 98.6129C19.6108 98.6129 18.0176 97.4134 18.0176 95.8141C18.0176 94.2148 19.6108 93.0154 21.6024 93.0154C23.594 93.0154 25.1872 94.2148 25.1872 95.8141Z" fill="#E29700"/>
<path d="M61.8337 98.6127C61.8337 99.8122 61.0371 100.612 59.8422 100.612C58.6472 100.612 57.8506 99.8122 57.8506 98.6127C57.8506 97.4132 58.6472 96.6136 59.8422 96.6136C61.0371 96.2138 61.8337 97.4132 61.8337 98.6127Z" fill="#E29700"/>
<path d="M59.8413 104.21C59.8413 105.01 58.6464 105.81 57.4514 105.81C56.2565 105.81 55.0615 105.01 55.0615 104.21C55.0615 103.411 56.2565 102.611 57.4514 102.611C58.6464 102.611 59.8413 103.411 59.8413 104.21Z" fill="#E29700"/>
<path d="M60.6367 94.6148C60.6367 96.2141 58.6451 97.8134 56.6536 97.8134C54.2637 97.8134 52.6704 96.6139 52.6704 94.6148C52.6704 92.6157 54.662 91.4163 56.6536 91.4163C58.6451 91.4163 60.6367 92.6157 60.6367 94.6148Z" fill="#E29700"/>
<path d="M45.901 95.8141C47.4409 95.8141 48.6892 94.9191 48.6892 93.815C48.6892 92.7109 47.4409 91.8159 45.901 91.8159C44.3611 91.8159 43.1128 92.7109 43.1128 93.815C43.1128 94.9191 44.3611 95.8141 45.901 95.8141Z" fill="#E29700"/>
<path d="M61.4338 87.8178C61.4338 88.2176 61.0355 88.2176 61.0355 88.2176C60.6372 88.2176 60.6372 87.8178 60.6372 87.8178C60.6372 87.418 61.0355 87.418 61.0355 87.418C61.4338 87.418 61.4338 87.8178 61.4338 87.8178Z" fill="#E29700"/>
<path d="M53.8654 87.8177C55.4052 87.8177 56.6536 86.5647 56.6536 85.019C56.6536 83.4733 55.4052 82.2202 53.8654 82.2202C52.3255 82.2202 51.0771 83.4733 51.0771 85.019C51.0771 86.5647 52.3255 87.8177 53.8654 87.8177Z" fill="#E29700"/>
<path d="M48.2905 89.0172C48.2905 89.417 47.8922 89.8168 47.4939 89.8168C47.0956 89.8168 46.6973 89.417 46.6973 89.0172C46.6973 88.6173 47.0956 88.2175 47.4939 88.2175C47.8922 88.2175 48.2905 88.6173 48.2905 89.0172Z" fill="#E29700"/>
<path d="M101.665 100.212C101.665 103.811 99.6734 107.009 96.8852 107.009C94.4954 107.009 92.1055 104.21 92.1055 100.212C92.1055 96.6139 94.097 93.4153 96.8852 93.4153C99.6734 93.8151 101.665 96.6139 101.665 100.212Z" fill="#E29700"/>
<path d="M92.5029 106.209C92.5029 107.009 90.9097 107.809 88.5198 107.809C86.5282 107.809 84.5366 107.009 84.5366 106.209C84.5366 105.41 86.1299 104.61 88.5198 104.61C90.9097 104.61 92.5029 105.41 92.5029 106.209Z" fill="#E29700"/>
<path d="M89.3169 96.6138C89.3169 97.4134 88.5202 97.8132 87.7236 97.8132C86.927 97.8132 86.1304 97.4134 86.1304 96.6138C86.1304 95.8141 86.927 95.4143 87.7236 95.4143C88.5202 95.8141 89.3169 96.214 89.3169 96.6138Z" fill="#E29700"/>
<path d="M82.9434 100.612C82.9434 101.012 82.1467 101.412 81.3501 101.412C80.5535 101.412 79.7568 101.012 79.7568 100.612C79.7568 100.212 80.5535 99.8125 81.3501 99.8125C82.1467 99.8125 82.9434 100.212 82.9434 100.612Z" fill="#E29700"/>
<path d="M90.9089 93.4154C90.9089 95.0147 88.9173 96.2142 86.5275 96.2142C84.1376 96.2142 82.146 95.0147 82.146 93.4154C82.146 91.8162 84.1376 90.6167 86.5275 90.6167C88.9173 90.6167 90.9089 91.8162 90.9089 93.4154Z" fill="#E29700"/>
<path d="M77.3682 95.4144C79.128 95.4144 80.5547 94.1614 80.5547 92.6156C80.5547 91.0699 79.128 89.8169 77.3682 89.8169C75.6083 89.8169 74.1816 91.0699 74.1816 92.6156C74.1816 94.1614 75.6083 95.4144 77.3682 95.4144Z" fill="#E29700"/>
<path d="M111.225 104.61C111.885 104.61 112.42 104.073 112.42 103.411C112.42 102.748 111.885 102.211 111.225 102.211C110.565 102.211 110.03 102.748 110.03 103.411C110.03 104.073 110.565 104.61 111.225 104.61Z" fill="#E29700"/>
<path d="M111.622 108.608C111.622 109.808 110.825 110.608 109.63 110.608C108.435 110.608 107.639 109.808 107.639 108.608C107.639 107.409 108.435 106.609 109.63 106.609C110.825 106.609 111.622 107.409 111.622 108.608Z" fill="#E29700"/>
<path d="M102.86 113.406C102.86 114.606 102.063 115.405 100.868 115.405C99.6731 115.405 98.8765 114.606 98.8765 113.406C98.8765 112.207 99.6731 111.407 100.868 111.407C102.063 111.807 102.86 112.607 102.86 113.406Z" fill="#E29700"/>
<path d="M110.427 99.0127C110.427 100.212 109.631 101.412 108.037 101.412C106.842 101.412 105.647 100.612 105.647 99.0127C105.647 97.8132 106.444 96.6138 108.037 96.6138C109.232 96.6138 110.427 97.8132 110.427 99.0127Z" fill="#E29700"/>
<path d="M125.96 107.809C125.96 109.008 124.765 110.208 123.571 110.208C122.376 110.208 121.181 109.008 121.181 107.809C121.181 106.609 122.376 105.41 123.571 105.41C124.765 105.41 125.96 106.609 125.96 107.809Z" fill="#E29700"/>
<path d="M77.3669 109.808C77.3669 111.007 76.5703 111.807 75.3754 111.807C74.1804 111.807 73.3838 111.007 73.3838 109.808C73.3838 108.608 74.1804 107.809 75.3754 107.809C76.5703 107.809 77.3669 109.008 77.3669 109.808Z" fill="#E29700"/>
<path d="M72.9858 115.406C72.9858 116.605 71.7909 117.804 70.5959 117.804C69.401 117.804 68.2061 116.605 68.2061 115.406C68.2061 114.206 69.401 113.007 70.5959 113.007C71.7909 113.406 72.9858 114.206 72.9858 115.406Z" fill="#E29700"/>
<path d="M72.9858 103.411C72.9858 104.61 72.1892 105.81 70.5959 105.81C69.401 105.81 68.2061 105.01 68.2061 103.411C68.2061 102.211 69.0027 101.012 70.5959 101.012C71.7909 101.012 72.9858 102.211 72.9858 103.411Z" fill="#E29700"/>
<path d="M77.7649 102.211C77.7649 103.011 77.3666 103.411 76.5699 103.411C75.7733 103.411 75.375 103.011 75.375 102.211C75.375 101.412 75.7733 101.012 76.5699 101.012C77.3666 101.012 77.7649 101.412 77.7649 102.211Z" fill="#E29700"/>
<path d="M50.2817 113.406C51.1617 113.406 51.875 112.69 51.875 111.807C51.875 110.924 51.1617 110.208 50.2817 110.208C49.4018 110.208 48.6885 110.924 48.6885 111.807C48.6885 112.69 49.4018 113.406 50.2817 113.406Z" fill="#E29700"/>
<path d="M42.7129 103.811C42.7129 104.61 41.9163 105.41 41.1196 105.41C40.323 105.41 39.5264 104.61 39.5264 103.811C39.5264 103.011 40.323 102.211 41.1196 102.211C41.9163 102.211 42.7129 103.011 42.7129 103.811Z" fill="#E29700"/>
<path d="M38.7305 109.408C38.7305 110.208 37.9338 111.007 37.1372 111.007C36.3406 111.007 35.5439 110.208 35.5439 109.408C35.5439 108.608 36.3406 107.809 37.1372 107.809C38.3321 107.809 38.7305 108.608 38.7305 109.408Z" fill="#E29700"/>
<path d="M48.6892 109.008C48.6892 110.208 47.8926 111.007 46.6976 111.007C45.5027 111.007 44.7061 110.208 44.7061 109.008C44.7061 107.809 45.5027 107.009 46.6976 107.009C47.8926 107.009 48.6892 107.809 48.6892 109.008Z" fill="#E29700"/>
<path d="M51.875 104.61C51.875 105.41 51.0784 106.21 50.2817 106.21C49.4851 106.21 48.6885 105.41 48.6885 104.61C48.6885 103.811 49.4851 103.011 50.2817 103.011C51.4767 103.011 51.875 103.811 51.875 104.61Z" fill="#E29700"/>
<path d="M0.891094 101.412C0.891094 103.011 -0.702161 104.61 -2.29542 104.61C-3.88868 104.61 -5.48193 103.011 -5.48193 101.412C-5.48193 99.8124 -3.88868 98.2131 -2.29542 98.2131C-0.702161 98.2131 0.891094 99.8124 0.891094 101.412Z" fill="#E29700"/>
<path d="M4.47436 96.6138C5.79426 96.6138 6.86424 95.5397 6.86424 94.2148C6.86424 92.89 5.79426 91.8159 4.47436 91.8159C3.15446 91.8159 2.08447 92.89 2.08447 94.2148C2.08447 95.5397 3.15446 96.6138 4.47436 96.6138Z" fill="#E29700"/>
<path d="M4.07763 115.006C5.8375 115.006 7.26415 113.573 7.26415 111.807C7.26415 110.04 5.8375 108.608 4.07763 108.608C2.31777 108.608 0.891113 110.04 0.891113 111.807C0.891113 113.573 2.31777 115.006 4.07763 115.006Z" fill="#E29700"/>
<path d="M4.87303 106.609C4.87303 108.608 3.27977 110.608 0.889884 110.608C-1.10169 110.608 -3.09326 109.008 -3.09326 106.609C-3.09326 104.21 -1.5 102.611 0.889884 102.611C3.27977 103.011 4.87303 104.61 4.87303 106.609Z" fill="#E29700"/>
<path d="M44.3069 90.2168C44.3069 93.4154 41.5187 96.2141 38.3321 96.2141C35.1456 96.2141 32.3574 93.4154 32.3574 90.2168C32.3574 87.0182 35.1456 84.2195 38.3321 84.2195C41.5187 84.2195 44.3069 87.0182 44.3069 90.2168Z" fill="#E29700"/>
<path d="M33.5527 90.2167C33.5527 91.8159 32.3578 92.6156 31.1628 92.6156C29.5696 92.6156 28.7729 91.4161 28.7729 90.2167C28.7729 89.0172 29.9679 87.8177 31.1628 87.8177C32.3578 87.4179 33.5527 88.6174 33.5527 90.2167Z" fill="#FFB000"/>
<path d="M3.67854 291.327C3.67854 295.725 -6.27933 300.123 -8.66921 298.124C-9.06753 297.724 -8.66921 297.324 -9.06753 296.924C-9.86416 296.125 -11.8557 296.924 -13.0507 296.924C-16.2372 297.324 -20.6187 293.726 -20.6187 291.327C-20.6187 288.128 -14.2456 284.53 -8.2709 284.53C-1.89787 284.13 3.67854 287.329 3.67854 291.327Z" fill="#FFB000"/>
<path d="M136.719 207.764L144.685 156.987L164.601 152.189L195.271 178.178L199.653 172.58L166.194 144.593L138.711 150.99L129.549 206.565L136.719 207.764Z" fill="#D64759"/>
<path d="M103.659 300.523H166.991L173.364 196.569H97.6841L103.659 300.523Z" fill="#FFB000"/>
<path d="M92.7237 206.071H178.361V194.076H92.7237V206.071Z" fill="#E29700"/>
<path d="M355.791 243.348C382.478 255.343 409.563 267.737 436.25 279.732C441.03 286.929 440.632 297.324 436.648 301.722C433.064 306.12 427.089 304.921 424.301 298.924C421.911 293.726 423.504 287.729 423.504 286.929C400.8 286.129 378.494 285.729 355.791 284.93V243.348Z" fill="#F9D4D3"/>
<path d="M179.337 246.547C206.024 258.542 233.109 270.936 259.796 282.931C264.576 290.128 264.178 300.523 260.195 304.921C256.61 309.319 250.635 308.12 247.847 302.122C245.457 296.925 247.05 290.927 247.05 290.128C224.346 289.328 202.041 288.928 179.337 288.129V246.547Z" fill="#F9D4D3"/>
<path d="M179.337 246.547C206.024 258.542 233.109 270.936 259.796 282.931C264.576 290.128 264.178 300.523 260.195 304.921C256.61 309.319 250.635 308.12 247.847 302.122C245.457 296.925 247.05 290.927 247.05 290.128C224.346 289.328 202.041 288.928 179.337 288.129V246.547Z" fill="#F9D4D3"/>
<path d="M270.807 310.517H360.03V228.553H270.807V310.517Z" fill="#F9D4D3"/>
<path d="M151.067 310.517H240.29V228.553H151.067V310.517Z" fill="#F9D4D3"/>
<path d="M231.942 277.247H294.477V258.855H231.942V277.247Z" fill="#F9D4D3"/>
<path d="M280.367 301.721H350.47V236.95H280.367V301.721Z" fill="#5D7AA6"/>
<path d="M160.626 301.721H230.729V236.95H160.626V301.721Z" fill="#D64759"/>
</svg>
