<svg width="130" height="44" viewBox="0 0 130 44" fill="none" xmlns="http://www.w3.org/2000/svg">
<g clip-path="url(#clip0_107_385)">
<path fill-rule="evenodd" clip-rule="evenodd" d="M16.8992 11.6044C14.1267 11.6044 11.8859 13.8648 11.8859 16.6535V26.8251C11.8859 29.6121 14.1335 31.8725 16.8992 31.8725H26.183C28.9538 31.8725 31.1947 29.6121 31.1947 26.8251V16.6535C31.1947 13.8648 28.947 11.6044 26.183 11.6044H16.8992ZM14.5834 7.12133H28.504C32.6619 7.12133 36.0274 10.5119 36.0274 14.6872V28.7282C36.0274 32.9086 32.6568 36.2941 28.504 36.2941H14.5834C10.4255 36.2941 7.05996 32.9035 7.05996 28.7282V14.6872C7.05484 10.505 10.4255 7.12133 14.5834 7.12133ZM14.839 5.15677C9.51381 5.15677 5.20082 9.50138 5.20082 14.8565V28.4324C5.20082 33.7875 9.51381 38.1338 14.839 38.1338H28.2432C33.5667 38.1338 37.8814 33.7875 37.8814 28.4324V14.8565C37.8814 9.50138 33.5667 5.15677 28.2432 5.15677H14.839ZM13.6717 0.0205078H29.5042C37.0567 0.0205078 43.176 6.17923 43.176 13.7776V29.5625C43.176 37.1592 37.0516 43.3196 29.5042 43.3196H13.6717C6.11761 43.3196 0 37.1592 0 29.5625V13.7776C0 6.17923 6.12442 0.0205078 13.6717 0.0205078Z" fill="#FFB414"/>
<path fill-rule="evenodd" clip-rule="evenodd" d="M64.4191 7.12133H84.1284V12.1636H61.679C59.5693 12.1636 57.8516 13.8836 57.8516 16.0123V27.5022C57.8516 29.6309 59.5625 31.3527 61.679 31.3527H84.1215V36.2872L66.8542 36.2941H60.1743C56.0231 36.2941 52.6525 32.9035 52.6525 28.7282V14.6872C52.6525 10.505 56.0163 7.12133 60.1743 7.12133H64.4191ZM59.2694 0.0205078H84.1284V5.15677H60.4367C55.1115 5.15677 50.7985 9.50138 50.7985 14.8565V28.4324C50.7985 33.7875 55.1115 38.1338 60.4367 38.1338H84.1284V43.3196H59.2694C51.7221 43.3196 45.5977 37.1592 45.5977 29.5625V13.7776C45.5977 6.17923 51.7153 0.0205078 59.2694 0.0205078Z" fill="#FFB414"/>
<path fill-rule="evenodd" clip-rule="evenodd" d="M101.552 7.12133H115.318C119.525 7.12133 122.94 10.5563 122.94 14.7881V43.3196H117.927V16.1577C117.927 13.7964 116.023 11.8866 113.682 11.8866H103.411C101.065 11.8866 99.1667 13.8015 99.1667 16.1577V43.3196H93.9352V14.7813C93.9352 10.5495 97.3433 7.12133 101.552 7.12133ZM100.627 0.0205078H116.322C123.876 0.0205078 130 6.17923 130 13.7776V43.3196H124.893V14.9505C124.893 9.59542 120.573 5.25081 115.248 5.25081H101.752C96.4265 5.25081 92.1067 9.59542 92.1067 14.9505V43.3196H86.9502V13.7776C86.9553 6.17923 93.0746 0.0205078 100.627 0.0205078Z" fill="#FFB414"/>
</g>
<defs>
<clipPath id="clip0_107_385">
<rect width="130" height="43.3333" fill="white"/>
</clipPath>
</defs>
</svg>
