<?xml version="1.0" encoding="utf-8"?>
<!-- Generator: Adobe Illustrator 22.1.0, SVG Export Plug-In . SVG Version: 6.00 Build 0)  -->
<svg version="1.1" id="레이어_1" xmlns="http://www.w3.org/2000/svg" xmlns:xlink="http://www.w3.org/1999/xlink" x="0px"
	 y="0px" viewBox="0 0 550.2 523" style="enable-background:new 0 0 550.2 523;" xml:space="preserve">
<style type="text/css">
	.st0{fill:#FFFFFF;}
</style>
<g>
	<path class="st0" d="M275.1,505.7c-4.7-110-9.6-169.8-42-202.2c-32.4-32.4-92.2-37.4-202.2-42c110-4.7,169.8-9.6,202.2-42
		c32.4-32.4,37.4-92.2,42-202.2c4.7,110,9.6,169.8,42,202.2c32.4,32.4,92.2,37.4,202.2,42c-110,4.7-169.8,9.6-202.2,42
		C284.7,336,279.8,395.8,275.1,505.7z"/>
	<path class="st0" d="M275.1,28.8c4.6,102.8,10.3,159.6,41.7,191c31.4,31.4,88.2,37.1,191,41.7c-102.8,4.6-159.6,10.3-191,41.7
		c-31.4,31.4-37.1,88.2-41.7,191c-4.6-102.8-10.3-159.6-41.7-191c-31.4-31.4-88.2-37.1-191-41.7c102.8-4.6,159.6-10.3,191-41.7
		C264.8,188.4,270.6,131.6,275.1,28.8 M275.1,5.3c-9.8,238.4-17.8,246.4-256.2,256.2c238.4,9.8,246.4,17.8,256.2,256.2
		c9.8-238.4,17.8-246.4,256.2-256.2C292.9,251.7,285,243.7,275.1,5.3L275.1,5.3z"/>
</g>
</svg>
